<svg width="77" height="77" viewBox="0 0 77 77" fill="none" xmlns="http://www.w3.org/2000/svg">
<circle cx="39.6429" cy="39.5218" r="36.9749" fill="#80ED99"/>
<circle cx="37.0075" cy="36.8903" r="36.134" stroke="black" stroke-width="0.512539"/>
<path d="M53.4195 34.8007L53.4809 34.8853H53.5854H59.1112C59.2523 34.8853 59.3875 34.9413 59.4872 35.041C59.587 35.1407 59.643 35.276 59.643 35.417C59.643 35.5581 59.587 35.6933 59.4872 35.793C59.3875 35.8928 59.2523 35.9488 59.1112 35.9488H14.9047C14.7637 35.9488 14.6285 35.8928 14.5287 35.793C14.429 35.6933 14.373 35.5581 14.373 35.417C14.373 35.276 14.429 35.1407 14.5287 35.041C14.6285 34.9413 14.7637 34.8853 14.9047 34.8853H20.4306H20.5351L20.5965 34.8007L29.5591 22.4508C29.5591 22.4508 29.5591 22.4508 29.5591 22.4508C29.7399 22.2029 29.9751 21.9998 30.2466 21.8571C30.5182 21.7143 30.819 21.6358 31.1257 21.6276C31.4324 21.6194 31.7369 21.6816 32.0157 21.8096C32.2946 21.9375 32.5404 22.1278 32.7342 22.3656L32.7341 22.3657L32.7379 22.3701L35.111 25.1206L35.1272 25.14C35.3533 25.4207 35.6395 25.6473 35.9647 25.803C36.2903 25.959 36.6469 26.04 37.008 26.04C37.3691 26.04 37.7256 25.959 38.0513 25.803C38.3765 25.6473 38.6626 25.4207 38.8888 25.14L38.9049 25.1207L41.2797 22.3796L41.2797 22.3796L41.2837 22.3748C41.4774 22.137 41.7232 21.9467 42.0021 21.8188C42.2809 21.6908 42.5854 21.6286 42.8921 21.6368C43.1988 21.6451 43.4996 21.7236 43.7712 21.8663C44.0428 22.009 44.278 22.2121 44.4587 22.4601L53.4195 34.8007ZM31.1577 22.6869L31.1561 22.6869C31.0117 22.6908 30.8702 22.7279 30.7424 22.7952C30.6146 22.8626 30.504 22.9585 30.4192 23.0754L22.079 34.5598L21.8426 34.8853H22.2449H51.7711H52.1734L51.937 34.5598L43.5968 23.0754C43.512 22.9585 43.4014 22.8626 43.2736 22.7952L43.178 22.9766L43.2736 22.7952C43.1458 22.7279 43.0042 22.6908 42.8598 22.6869V22.6869L42.8567 22.6869C42.7131 22.6851 42.571 22.7159 42.4409 22.7769C42.3113 22.8376 42.197 22.9268 42.1066 23.0378C42.1063 23.0382 42.106 23.0385 42.1057 23.0389L42.0901 23.0577L39.717 25.8082L39.7169 25.8081L39.7122 25.8139C39.3877 26.2188 38.9761 26.5454 38.508 26.7693C38.04 26.9933 37.5274 27.1089 37.0085 27.1075L37.0074 27.1075C36.4885 27.1089 35.976 26.9933 35.5079 26.7693C35.0398 26.5454 34.6283 26.2188 34.3038 25.8139L34.3039 25.8138L34.299 25.8082L31.9259 23.0577L31.9098 23.0384C31.8199 22.9265 31.7056 22.8367 31.5756 22.7757C31.4449 22.7145 31.302 22.6841 31.1577 22.6869ZM40.6919 46.6737H40.8969V46.4687C40.8969 44.9598 41.4963 43.5127 42.5632 42.4458C43.6301 41.3789 45.0771 40.7795 46.586 40.7795C47.6499 40.78 48.6924 41.0789 49.595 41.6421C50.4976 42.2054 51.2242 43.0105 51.6922 43.966C52.1603 44.9214 52.351 45.989 52.2427 47.0474C52.1345 48.1059 51.7316 49.1127 51.0799 49.9537C50.4282 50.7946 49.5537 51.436 48.5557 51.8049C47.5578 52.1738 46.4764 52.2555 45.4343 52.0407C44.3923 51.8258 43.4314 51.3231 42.6607 50.5896C41.8901 49.856 41.3405 48.9211 41.0746 47.8909L41.0349 47.7372H40.8761H33.1399H32.9808L32.9413 47.8913C32.5825 49.2928 31.7032 50.505 30.4823 51.2812C29.2614 52.0574 27.7907 52.3393 26.3694 52.0696C24.948 51.7999 23.6828 50.9989 22.8311 49.8295C21.9794 48.66 21.6052 47.21 21.7847 45.7745C21.9641 44.339 22.6837 43.0257 23.7971 42.1019C24.9104 41.1781 26.3339 40.7132 27.7779 40.8016C29.2219 40.8901 30.5779 41.5254 31.5702 42.5782C32.5624 43.6311 33.1163 45.0223 33.1191 46.4691L33.1195 46.6737H33.3241H40.6919ZM24.86 50.3148C25.6207 50.823 26.515 51.0943 27.4299 51.0943C28.6567 51.0943 29.8333 50.607 30.7008 49.7395C31.5682 48.872 32.0556 47.6955 32.0556 46.4687C32.0556 45.5538 31.7843 44.6595 31.276 43.8988C30.7677 43.1381 30.0453 42.5452 29.2001 42.1951C28.3548 41.845 27.4248 41.7534 26.5275 41.9319C25.6302 42.1104 24.806 42.5509 24.1591 43.1978C23.5122 43.8447 23.0716 44.6689 22.8931 45.5662C22.7146 46.4635 22.8063 47.3936 23.1564 48.2388C23.5065 49.084 24.0993 49.8065 24.86 50.3148ZM44.0162 50.3148C44.7769 50.823 45.6712 51.0943 46.5861 51.0943C47.8129 51.0943 48.9894 50.607 49.8569 49.7395C50.7244 48.872 51.2117 47.6955 51.2117 46.4687C51.2117 45.5538 50.9404 44.6595 50.4322 43.8988C49.9239 43.1381 49.2015 42.5452 48.3562 42.1951C47.511 41.845 46.5809 41.7534 45.6836 41.9319C44.7863 42.1104 43.9621 42.5509 43.3152 43.1978C42.6683 43.8447 42.2278 44.6689 42.0493 45.5662C41.8708 46.4635 41.9624 47.3936 42.3125 48.2388C42.6626 49.084 43.2555 49.8065 44.0162 50.3148Z" fill="black" stroke="#80ED99" stroke-width="0.410031"/>
</svg>
