<svg width="78" height="100" viewBox="0 0 78 100" fill="none" xmlns="http://www.w3.org/2000/svg">
<rect x="31" y="26" width="18" height="53" fill="#80ED99"/>
<rect x="52" y="47" width="20" height="32" fill="#80ED99"/>
<rect x="8" y="59" width="20" height="20" fill="#80ED99"/>
<mask id="path-4-inside-1_272_5009" fill="white">
<path d="M5 55.6016H27.4V78.0016H5V55.6016Z"/>
</mask>
<path d="M5 55.6016V54.6016H4V55.6016H5ZM5 78.0016H4V79.0016H5V78.0016ZM5 56.6016H27.4V54.6016H5V56.6016ZM27.4 77.0016H5V79.0016H27.4V77.0016ZM6 78.0016V55.6016H4V78.0016H6Z" fill="black" mask="url(#path-4-inside-1_272_5009)"/>
<mask id="path-6-inside-2_272_5009" fill="white">
<path d="M49.8008 44.3984H72.2008V77.9984H49.8008V44.3984Z"/>
</mask>
<path d="M72.2008 44.3984H73.2008V43.3984H72.2008V44.3984ZM72.2008 77.9984V78.9984H73.2008V77.9984H72.2008ZM49.8008 45.3984H72.2008V43.3984H49.8008V45.3984ZM71.2008 44.3984V77.9984H73.2008V44.3984H71.2008ZM72.2008 76.9984H49.8008V78.9984H72.2008V76.9984Z" fill="black" mask="url(#path-6-inside-2_272_5009)"/>
<rect x="27.8984" y="22.5" width="21.4" height="55" stroke="black"/>
<path d="M16.4062 53.123C15.9062 53.123 15.4492 53.0273 15.0352 52.8359C14.6211 52.6445 14.293 52.3711 14.0508 52.0156C13.8125 51.6562 13.6992 51.2246 13.7109 50.7207L13.7227 50.6855H14.3789C14.3789 51.0488 14.4648 51.3711 14.6367 51.6523C14.8086 51.9297 15.0469 52.1465 15.3516 52.3027C15.6562 52.459 16.0078 52.5371 16.4062 52.5371C17.0078 52.5371 17.4785 52.3789 17.8184 52.0625C18.1582 51.7422 18.3281 51.291 18.3281 50.709C18.3281 50.1074 18.1504 49.6641 17.7949 49.3789C17.4395 49.0898 16.9336 48.9453 16.2773 48.9453H15.4629V48.3535H16.2773C16.6914 48.3535 17.0371 48.2832 17.3145 48.1426C17.5957 47.998 17.8066 47.8027 17.9473 47.5566C18.0918 47.3066 18.1641 47.0176 18.1641 46.6895C18.1641 46.1543 18.0137 45.7285 17.7129 45.4121C17.4121 45.0957 16.9668 44.9375 16.377 44.9375C16.0098 44.9375 15.6855 45.0098 15.4043 45.1543C15.123 45.2988 14.9023 45.5039 14.7422 45.7695C14.582 46.0352 14.502 46.3457 14.502 46.7012H13.8457L13.834 46.666C13.8223 46.2207 13.9238 45.8242 14.1387 45.4766C14.3574 45.125 14.6602 44.8496 15.0469 44.6504C15.4375 44.4473 15.8809 44.3457 16.377 44.3457C17.1348 44.3457 17.7383 44.5547 18.1875 44.9727C18.6406 45.3906 18.8672 45.9707 18.8672 46.7129C18.8672 47.1152 18.7422 47.4941 18.4922 47.8496C18.2422 48.2012 17.8887 48.4609 17.4316 48.6289C17.9668 48.7812 18.3672 49.0371 18.6328 49.3965C18.8984 49.7559 19.0312 50.1855 19.0312 50.6855C19.0312 51.1934 18.9199 51.6289 18.6973 51.9922C18.4746 52.3555 18.1641 52.6348 17.7656 52.8301C17.3711 53.0254 16.918 53.123 16.4062 53.123Z" fill="black"/>
<path d="M58.8281 41V40.4668L61.623 37.2969C61.9668 36.9023 62.2422 36.5566 62.4492 36.2598C62.6562 35.959 62.8047 35.6836 62.8945 35.4336C62.9883 35.1836 63.0352 34.9375 63.0352 34.6953C63.0352 34.1641 62.8828 33.7383 62.5781 33.418C62.2773 33.0977 61.8379 32.9375 61.2598 32.9375C60.6543 32.9375 60.1836 33.1172 59.8477 33.4766C59.5117 33.8359 59.3438 34.3184 59.3438 34.9238H58.6875L58.6758 34.8887C58.6641 34.4121 58.7617 33.9824 58.9688 33.5996C59.1797 33.2129 59.4824 32.9082 59.877 32.6855C60.2715 32.459 60.7383 32.3457 61.2773 32.3457C61.7812 32.3457 62.2168 32.4414 62.584 32.6328C62.9551 32.8242 63.2402 33.0938 63.4395 33.4414C63.6426 33.7891 63.7441 34.1992 63.7441 34.6719C63.7441 34.9883 63.6777 35.3047 63.5449 35.6211C63.416 35.9336 63.2266 36.2617 62.9766 36.6055C62.7266 36.9492 62.4238 37.3203 62.0684 37.7188L59.7188 40.3848L59.7305 40.4141H63.4629L63.5039 39.207H64.125V41H58.8281Z" fill="black"/>
<path d="M36.7305 19V18.4902L38.2656 18.4141V11.1953L36.5781 11.4473V10.9551L38.9688 10.4453V18.4141L40.498 18.4902V19H36.7305Z" fill="black"/>
</svg>
