<svg width="25" height="24" viewBox="0 0 25 24" fill="none" xmlns="http://www.w3.org/2000/svg">
  <g clip-path="url(#clip0_272_5049)">
    <path
      d="M14.414 14.58C14.2537 14.6191 14.0923 14.6538 13.93 14.684C13.0494 14.8498 12.1453 14.8464 11.266 14.674C11.112 14.644 10.894 14.591 10.613 14.516L9.692 15.713C7.419 15.64 6.555 14.117 6.555 14.117C6.555 10.736 8.036 7.995 8.036 7.995C9.517 6.862 10.926 6.893 10.926 6.893L11.329 7.418C11.3661 7.41279 11.4035 7.40946 11.441 7.408C12.2092 7.30617 12.9877 7.30954 13.755 7.418L14.197 6.893C14.197 6.893 15.607 6.862 17.087 7.996C17.087 7.996 18.569 10.736 18.569 14.117C18.569 14.117 17.694 15.639 15.421 15.713L14.414 14.58ZM10.576 11C9.975 11 9.5 11.45 9.5 12C9.5 12.55 9.985 13 10.576 13C11.176 13 11.651 12.55 11.651 12C11.661 11.45 11.177 11 10.576 11ZM14.424 11C13.824 11 13.349 11.45 13.349 12C13.349 12.55 13.834 13 14.424 13C15.025 13 15.5 12.55 15.5 12C15.5 11.45 15.025 11 14.424 11ZM21.5 23L16.51 18H19.5V4H5.5V18H16.503L17.073 20H5.5C4.96957 20 4.46086 19.7893 4.08579 19.4142C3.71071 19.0391 3.5 18.5304 3.5 18V4C3.5 3.46957 3.71071 2.96086 4.08579 2.58579C4.46086 2.21071 4.96957 2 5.5 2H19.5C20.0304 2 20.5391 2.21071 20.9142 2.58579C21.2893 2.96086 21.5 3.46957 21.5 4V23Z"
      fill="currentColor"/>
  </g>
  <defs>
    <clipPath id="clip0_272_5049">
      <rect width="24" height="24" fill="white" transform="translate(0.5)"/>
    </clipPath>
  </defs>
</svg>
