<svg width="94" height="8" viewBox="0 0 94 8" fill="none" xmlns="http://www.w3.org/2000/svg">
  <path
    d="M93.3536 4.35355C93.5488 4.15829 93.5488 3.84171 93.3536 3.64645L90.1716 0.464466C89.9763 0.269204 89.6597 0.269204 89.4645 0.464466C89.2692 0.659728 89.2692 0.976311 89.4645 1.17157L92.2929 4L89.4645 6.82843C89.2692 7.02369 89.2692 7.34027 89.4645 7.53553C89.6597 7.7308 89.9763 7.7308 90.1716 7.53553L93.3536 4.35355ZM0 4.5H1.01087V3.5H0V4.5ZM3.03261 4.5H5.05435V3.5H3.03261V4.5ZM7.07609 4.5H9.09783V3.5H7.07609V4.5ZM11.1196 4.5H13.1413V3.5H11.1196V4.5ZM15.163 4.5H17.1848V3.5H15.163V4.5ZM19.2065 4.5H21.2283V3.5H19.2065V4.5ZM23.25 4.5H25.2717V3.5H23.25V4.5ZM27.2935 4.5H29.3152V3.5H27.2935V4.5ZM31.337 4.5H33.3587V3.5H31.337V4.5ZM35.3804 4.5H37.4022V3.5H35.3804V4.5ZM39.4239 4.5H41.4457V3.5H39.4239V4.5ZM43.4674 4.5H45.4891V3.5H43.4674V4.5ZM47.5109 4.5H49.5326V3.5H47.5109V4.5ZM51.5544 4.5H53.5761V3.5H51.5544V4.5ZM55.5978 4.5H57.6196V3.5H55.5978V4.5ZM59.6413 4.5H61.6631V3.5H59.6413V4.5ZM63.6848 4.5H65.7065V3.5H63.6848V4.5ZM67.7283 4.5H69.75V3.5H67.7283V4.5ZM71.7717 4.5H73.7935V3.5H71.7717V4.5ZM75.8152 4.5H77.837V3.5H75.8152V4.5ZM79.8587 4.5H81.8804V3.5H79.8587V4.5ZM83.9022 4.5H85.9239V3.5H83.9022V4.5ZM87.9456 4.5H89.9674V3.5H87.9456V4.5ZM91.9891 4.5H93V3.5H91.9891V4.5Z"
    fill="currentColor"/>
</svg>
