<svg width="78" height="100" viewBox="0 0 78 100" fill="none" xmlns="http://www.w3.org/2000/svg">
<path d="M53.007 91.9995H18.3304C16.5968 91.9995 15.1914 90.5941 15.1914 88.8605V14.0374C15.1914 12.3038 16.5968 10.8984 18.3304 10.8984H51.1728C62.1315 10.8984 71.0153 19.7822 71.0153 30.7409V73.9912C71.0153 83.9369 62.9528 91.9995 53.007 91.9995Z" fill="#80ED99"/>
<path d="M58.479 87.1591C58.4091 87.1591 58.3387 87.1587 58.2676 87.1577L10.8209 86.6961C10.7232 86.6951 10.6445 86.6157 10.6445 86.5181V9.69448C10.6445 9.59826 10.7209 9.51942 10.8171 9.5165L60.0121 8.00253C61.4627 7.95837 62.8259 8.49453 63.8528 9.51344C64.8716 10.5243 65.4146 11.8692 65.3817 13.3002L65.383 80.1503C65.383 82.6695 64.8503 84.3686 63.7064 85.4975C62.5744 86.6147 60.863 87.1591 58.479 87.1591ZM11.0006 86.3417L58.2716 86.8016C60.665 86.8341 62.3623 86.3237 63.4562 85.244C64.5279 84.1864 65.0269 82.5679 65.0269 80.1503L65.0257 13.296C65.0563 11.9596 64.5507 10.7075 63.602 9.76619C62.6452 8.8168 61.375 8.31612 60.0231 8.35843L11.0007 9.86704L11.0006 86.3417Z" fill="black"/>
<path d="M8.96585 87.0587C8.44593 87.0587 7.95643 86.8671 7.58208 86.5156C7.19407 86.1514 6.98047 85.6632 6.98047 85.1407V11.9473C6.98047 10.6151 8.10313 9.5205 9.4832 9.50711L59.6658 9.02344C62.7855 9.02344 65.3216 11.4715 65.3216 14.4805V80.235C65.3216 83.2427 62.7875 85.6899 59.672 85.692L9.02283 87.0578C9.00375 87.0584 8.98473 87.0587 8.96585 87.0587ZM59.6682 9.51166L9.48812 9.99533C8.38425 10.0059 7.4862 10.8816 7.4862 11.9473V85.1407C7.4862 85.5301 7.64547 85.8941 7.9347 86.1656C8.224 86.4371 8.6074 86.5812 9.00873 86.5699L59.6683 85.2039C62.5067 85.2039 64.8158 82.9749 64.8158 80.2351V14.4806C64.8157 11.7408 62.5066 9.51166 59.6682 9.51166Z" fill="#1D1D1B"/>
<path d="M61.1704 30.0526H12.4809C12.2714 30.0526 12.1016 29.8887 12.1016 29.6865C12.1016 29.4842 12.2714 29.3203 12.4809 29.3203H61.1704C61.3799 29.3203 61.5497 29.4842 61.5497 29.6865C61.5497 29.8887 61.3799 30.0526 61.1704 30.0526Z" fill="#1D1D1B"/>
<path d="M36.1526 68.3979C27.0349 68.3979 19.6172 61.6708 19.6172 53.4021C19.6172 45.1334 27.0349 38.4062 36.1526 38.4062C45.2703 38.4062 52.688 45.1334 52.688 53.4021C52.688 61.6708 45.2702 68.3979 36.1526 68.3979ZM36.1526 38.7624C27.2312 38.7624 19.9733 45.3298 19.9733 53.4022C19.9733 61.4745 27.2312 68.0419 36.1526 68.0419C45.0739 68.0419 52.3319 61.4745 52.3319 53.4022C52.3319 45.3298 45.0739 38.7624 36.1526 38.7624ZM36.1526 67.4215C27.5926 67.4215 20.6287 61.1325 20.6287 53.4021C20.6287 45.6718 27.5926 39.3827 36.1526 39.3827C44.7126 39.3827 51.6765 45.6718 51.6765 53.4021C51.6764 61.1325 44.7125 67.4215 36.1526 67.4215ZM36.1526 39.7389C27.7891 39.7389 20.9848 45.8682 20.9848 53.4022C20.9848 60.9362 27.7891 67.0655 36.1526 67.0655C44.5161 67.0655 51.3204 60.9362 51.3204 53.4022C51.3203 45.8682 44.5161 39.7389 36.1526 39.7389Z" fill="#1D1D1B"/>
<path d="M36.658 67.375C36.6574 67.375 36.6568 67.375 36.6562 67.375L36.4399 67.3725C35.9971 67.3665 35.546 67.3681 35.1097 67.3701L35.0555 67.3703C35.0537 67.3704 35.0505 67.3702 35.0479 67.3702C34.8843 67.3638 34.7382 67.3601 34.6013 67.3588C34.5619 67.3585 34.5237 67.3451 34.4929 67.3207C28.9167 62.936 26.1485 58.2279 26.2653 53.3273C26.3503 49.7571 28.0261 46.061 31.1114 42.6386C32.393 41.2169 33.6585 40.1269 34.4944 39.4629C34.5473 39.4206 34.6197 39.4123 34.6809 39.4411C34.7019 39.451 34.7235 39.4561 34.7451 39.4563C34.8679 39.4574 34.9802 39.4493 35.0867 39.4314C35.1145 39.4267 35.1419 39.4215 35.1691 39.4163L35.1991 39.4106C35.2115 39.4083 35.2235 39.4069 35.2368 39.4077C35.251 39.4075 35.2661 39.4057 35.2838 39.4021C35.299 39.399 35.3143 39.3978 35.33 39.3987C35.3957 39.4027 35.4613 39.4069 35.527 39.4111C35.7463 39.4252 35.9731 39.4398 36.1937 39.4399C36.2799 39.4399 36.3652 39.4388 36.4501 39.4378C36.5195 39.4369 36.5884 39.4361 36.6573 39.4359C36.6575 39.4359 36.6577 39.4359 36.658 39.4359C36.7051 39.4359 36.7503 39.4545 36.7836 39.4878C36.8172 39.5213 36.836 39.5665 36.836 39.6139V67.1969C36.836 67.2445 36.817 67.2901 36.7833 67.3235C36.7499 67.3565 36.7049 67.375 36.658 67.375ZM35.7469 67.0122C35.9794 67.0122 36.213 67.0133 36.4447 67.0164L36.48 67.0168V39.7936C36.4715 39.7938 36.463 39.7938 36.4545 39.794C36.3682 39.795 36.2814 39.796 36.1938 39.796C35.9616 39.796 35.7292 39.781 35.5042 39.7665C35.4463 39.7628 35.3886 39.7591 35.3308 39.7556C35.3025 39.7603 35.2755 39.7631 35.2491 39.7637L35.2357 39.7662C35.2061 39.7718 35.1762 39.7775 35.1459 39.7826C35.0184 39.804 34.8858 39.8142 34.7417 39.8124C34.7076 39.8121 34.6741 39.8083 34.6411 39.8013C33.8162 40.4616 32.6035 41.5153 31.3757 42.8771C28.3483 46.2354 26.7041 49.8519 26.6212 53.3359C26.5076 58.1044 29.2137 62.7025 34.6654 67.0034C34.787 67.0052 34.9161 67.0087 35.0578 67.0142L35.1082 67.014C35.3186 67.0131 35.5322 67.0122 35.7469 67.0122ZM35.6465 66.9162C35.6081 66.9162 35.57 66.9038 35.5383 66.8796C29.9461 62.6046 27.1664 58.0541 27.2764 53.3546C27.3432 50.4997 28.4798 47.6092 30.6543 44.7635C32.4354 42.4327 34.4787 40.7219 35.5381 39.9096C35.5919 39.8684 35.6645 39.8613 35.7253 39.8913C35.7861 39.9212 35.8245 39.9831 35.8245 40.0509V66.7381C35.8245 66.8059 35.7861 66.8677 35.7253 66.8977C35.7004 66.9101 35.6734 66.9162 35.6465 66.9162ZM27.6324 53.363C27.5271 57.862 30.1632 62.2388 35.4684 66.3757V40.4153C34.369 41.2846 32.5443 42.8767 30.9373 44.9797C28.8094 47.7643 27.6975 50.5849 27.6324 53.363Z" fill="#1D1D1B"/>
<path d="M36.9687 67.3807C36.9679 67.3807 36.9671 67.3807 36.9663 67.3807L36.4368 67.3744C36.3048 67.3726 36.1726 67.3718 36.0405 67.3712C35.9643 67.3709 35.8968 67.3222 35.8725 67.2499C35.8483 67.1776 35.8727 67.0979 35.9333 67.0517C41.7133 62.6379 44.5716 57.978 44.4286 53.2013C44.3065 49.1187 41.9731 45.6562 40.0373 43.4704C38.3152 41.5261 36.6133 40.2298 35.9614 39.7627C35.898 39.7172 35.8715 39.6357 35.8962 39.5617C35.9208 39.4877 35.9928 39.4378 36.069 39.44C36.1096 39.4408 36.1504 39.4416 36.1911 39.4417C36.2747 39.4386 36.3614 39.4406 36.4457 39.4396C36.7874 39.4351 37.1409 39.4311 37.5037 39.5014C37.5715 39.5146 37.6339 39.5115 37.6894 39.4921C37.7475 39.4721 37.8123 39.4831 37.8602 39.5222C38.6483 40.1631 39.842 41.2135 41.0533 42.578C44.048 45.9515 45.6877 49.6096 45.7955 53.1565C45.9451 58.0838 43.2494 62.8442 37.7835 67.3056C37.7517 67.3315 37.7119 67.3457 37.6709 67.3457H37.1045C37.0798 67.3457 37.0659 67.352 37.0577 67.3568C37.0306 67.3724 36.9999 67.3807 36.9687 67.3807ZM36.5565 67.0196L36.9288 67.0241C36.9833 67.0012 37.0421 66.9897 37.1045 66.9897H37.6074C42.9501 62.6138 45.5852 57.9635 45.4396 53.1675C45.3344 49.7049 43.7257 46.1248 40.7871 42.8145C39.6266 41.5073 38.4825 40.4921 37.7049 39.8551C37.619 39.8706 37.5288 39.8691 37.4358 39.851C37.1583 39.7972 36.8861 39.7917 36.6028 39.7941C37.4291 40.4224 38.8602 41.6042 40.304 43.2344C42.2789 45.4642 44.6594 49.0015 44.7848 53.1906C44.9277 57.974 42.1599 62.6248 36.5565 67.0196Z" fill="#1D1D1B"/>
<path d="M28.9051 46.0819C28.8929 46.0819 28.8806 46.0806 28.8682 46.078C26.7096 45.622 25.1128 45.104 24.3532 44.8359C24.2967 44.816 24.2541 44.769 24.2396 44.7109C24.2252 44.6528 24.241 44.5913 24.2815 44.5473C24.5475 44.2589 24.7753 44.0011 24.9777 43.7593C25.0247 43.7029 25.1014 43.6811 25.171 43.7048C26.0501 44.0005 27.4876 44.4336 29.3434 44.8173C29.4354 44.8364 29.4968 44.9237 29.4836 45.0168C29.4609 45.1764 29.385 45.3204 29.3179 45.4473C29.286 45.508 29.2558 45.5652 29.2335 45.6191C29.2184 45.6558 29.2047 45.6944 29.191 45.7334C29.1875 45.7431 29.1832 45.7525 29.1781 45.7615C29.1351 45.8378 29.0987 45.9087 29.0667 45.9782C29.0373 46.0423 28.9735 46.0819 28.9051 46.0819ZM24.7265 44.5884C25.5309 44.8623 26.9513 45.3022 28.8062 45.7007C28.8232 45.6679 28.8412 45.6344 28.8604 45.6001C28.8744 45.5605 28.8887 45.5214 28.9042 45.4838C28.9329 45.414 28.9686 45.3464 29.0031 45.281C29.0311 45.228 29.0583 45.1763 29.0807 45.1261C27.3771 44.7653 26.0369 44.3672 25.1725 44.0806C25.0361 44.2414 24.8886 44.4093 24.7265 44.5884Z" fill="#1D1D1B"/>
<path d="M35.4479 46.9081C35.4455 46.9081 35.4432 46.9081 35.4408 46.908C33.6617 46.8369 31.8344 46.6325 30.0095 46.3005C29.9507 46.2898 29.9011 46.2502 29.8776 46.1951C29.8541 46.1402 29.8598 46.0771 29.8928 46.0272C29.9536 45.935 30.013 45.837 30.0705 45.7422C30.1977 45.5327 30.3291 45.316 30.4965 45.1237C30.5373 45.0767 30.5999 45.0544 30.661 45.0651C32.2702 45.3414 33.8831 45.5141 35.4551 45.5785C35.5506 45.5824 35.6259 45.6609 35.6259 45.7564V46.7301C35.6259 46.7786 35.6061 46.8249 35.5712 46.8585C35.538 46.8904 35.4938 46.9081 35.4479 46.9081ZM30.3329 45.9965C31.9918 46.2872 33.6504 46.4713 35.2698 46.5443V45.9269C33.7697 45.8582 32.2347 45.6923 30.7023 45.4334C30.5831 45.5839 30.4816 45.7513 30.3751 45.9269C30.3611 45.9499 30.347 45.9732 30.3329 45.9965Z" fill="#1D1D1B"/>
<path d="M43.5333 46.2343C43.4707 46.2343 43.4115 46.2012 43.3792 46.1455L43.286 45.9846C43.1455 45.7423 43.005 45.4998 42.8669 45.256C42.8389 45.2067 42.8362 45.1469 42.8595 45.095C42.8829 45.0432 42.9295 45.0058 42.9852 44.9941C44.4347 44.6895 45.8383 44.2673 47.1568 43.7393C47.2009 43.7217 47.2501 43.7223 47.2935 43.7411C47.337 43.76 47.3713 43.7953 47.3887 43.8394C47.4452 43.9828 47.5335 44.1278 47.6513 44.2706C47.7382 44.3759 47.8402 44.4628 47.9725 44.5443C48.0295 44.5793 48.0619 44.6434 48.0567 44.7101C48.0513 44.7768 48.0091 44.8348 47.9473 44.8603C46.5646 45.4326 45.0925 45.8935 43.5717 46.23C43.5589 46.2329 43.546 46.2343 43.5333 46.2343ZM43.2968 45.2914C43.3953 45.4633 43.4947 45.6347 43.5941 45.8061L43.6218 45.854C44.9714 45.5485 46.281 45.1438 47.5207 44.6494C47.469 44.6019 47.4214 44.5516 47.3766 44.4972C47.2781 44.3779 47.1962 44.2557 47.1318 44.1324C45.9128 44.6104 44.6248 44.9996 43.2968 45.2914Z" fill="#1D1D1B"/>
<path d="M36.861 46.94L36.7941 46.9395C36.7462 46.9392 36.7004 46.9196 36.6671 46.8851C36.6338 46.8506 36.6158 46.8041 36.6173 46.7562C36.6256 46.4713 36.6334 46.1338 36.6276 45.7906C36.6268 45.7428 36.6453 45.6968 36.6788 45.6627C36.7123 45.6287 36.7579 45.6096 36.8056 45.6096C36.8056 45.6096 36.8058 45.6096 36.8059 45.6096C36.8215 45.6096 36.8371 45.6096 36.8527 45.6096C38.541 45.6097 40.196 45.479 41.7731 45.2211C41.8384 45.2103 41.9039 45.2367 41.9438 45.2893C42.1032 45.4998 42.244 45.7245 42.3802 45.9418C42.4321 46.0247 42.4841 46.1077 42.5371 46.1899C42.5694 46.24 42.5744 46.3029 42.5506 46.3575C42.5269 46.4121 42.4773 46.4512 42.4187 46.4617C40.6407 46.7791 38.7709 46.94 36.861 46.94ZM36.9855 45.9655C36.9865 46.1814 36.983 46.3912 36.9781 46.5837C38.7329 46.5776 40.452 46.4341 42.0943 46.1566C42.089 46.1481 42.0836 46.1395 42.0782 46.131C41.965 45.9502 41.8484 45.7642 41.723 45.59C40.201 45.8328 38.6086 45.959 36.9855 45.9655Z" fill="#1D1D1B"/>
<path d="M26.441 54.0669H20.937C20.8518 54.0669 20.7786 54.0066 20.7622 53.923C20.7457 53.8379 20.7348 53.7675 20.728 53.7017C20.6989 53.4198 20.6976 53.1435 20.7001 52.9105C20.7011 52.8129 20.7805 52.7344 20.8781 52.7344H26.3205C26.4134 52.7344 26.4906 52.8056 26.498 52.898C26.5245 53.2241 26.5713 53.5534 26.6171 53.8628C26.6247 53.9141 26.6096 53.966 26.5758 54.0052C26.542 54.0444 26.4928 54.0669 26.441 54.0669ZM21.0876 53.7108H26.2351C26.2062 53.5088 26.1787 53.3004 26.1578 53.0905H21.0553C21.056 53.2706 21.0618 53.4677 21.0821 53.6652C21.0837 53.6801 21.0855 53.6952 21.0876 53.7108Z" fill="#1D1D1B"/>
<path d="M35.5408 54.067H27.4515C27.4043 54.067 27.359 54.0482 27.3255 54.0149C27.2921 53.9814 27.2734 53.9362 27.2734 53.8889C27.2736 53.6404 27.2855 53.3892 27.2971 53.1463C27.3009 53.0657 27.3047 52.9852 27.3081 52.9049C27.3122 52.8096 27.3906 52.7344 27.486 52.7344H35.5423C35.5896 52.7344 35.6349 52.7532 35.6684 52.7866C35.7018 52.8201 35.7204 52.8654 35.7204 52.9127L35.7197 53.2614C35.7194 53.4707 35.719 53.6799 35.7188 53.8891C35.7188 53.9874 35.6391 54.067 35.5408 54.067ZM27.6315 53.7109H35.3629C35.3631 53.5609 35.3634 53.4108 35.3637 53.2609L35.3641 53.0906H27.6563C27.655 53.1148 27.654 53.1391 27.6528 53.1633C27.6442 53.3433 27.6354 53.528 27.6315 53.7109Z" fill="#1D1D1B"/>
<path d="M51.3894 54.067H45.7113C45.6196 54.067 45.5428 53.9973 45.5341 53.9059C45.5217 53.7768 45.5126 53.6462 45.5038 53.5201C45.4902 53.3274 45.4763 53.128 45.4508 52.9359C45.444 52.885 45.4595 52.8337 45.4934 52.7951C45.5273 52.7565 45.576 52.7344 45.6273 52.7344H51.3977C51.4459 52.7344 51.492 52.7539 51.5256 52.7886C51.5591 52.8233 51.5772 52.87 51.5757 52.9181C51.5648 53.2586 51.5654 53.5993 51.5675 53.8875C51.5679 53.935 51.5492 53.9806 51.5158 54.0143C51.4824 54.0481 51.4368 54.067 51.3894 54.067ZM45.8748 53.7109H51.2104C51.2097 53.5167 51.2104 53.3058 51.2149 53.0906H45.827C45.8404 53.2267 45.8498 53.3625 45.8591 53.4952C45.864 53.5663 45.8691 53.6386 45.8748 53.7109Z" fill="#1D1D1B"/>
<path d="M44.6332 54.0669H36.7366C36.6403 54.0669 36.5615 53.9904 36.5586 53.8941L36.5506 53.631C36.5432 53.3927 36.5357 53.1542 36.5313 52.9158C36.5304 52.8679 36.5488 52.8218 36.5823 52.7877C36.6158 52.7536 36.6615 52.7344 36.7093 52.7344H44.5381C44.6314 52.7344 44.7089 52.8064 44.7157 52.8993C44.7306 53.1026 44.7526 53.3102 44.7737 53.511C44.7863 53.6313 44.799 53.7516 44.8105 53.8721C44.8152 53.922 44.7987 53.9716 44.7649 54.0087C44.7311 54.0458 44.6833 54.0669 44.6332 54.0669ZM36.9093 53.7108H44.4366C44.4309 53.6566 44.4253 53.6025 44.4196 53.5484C44.4037 53.3984 44.3876 53.2445 44.374 53.0905H36.8912C36.8955 53.267 36.901 53.4435 36.9066 53.62L36.9093 53.7108Z" fill="#1D1D1B"/>
<path d="M41.4522 62.0929C41.4347 62.0929 41.417 62.0903 41.3997 62.085C39.9118 61.6252 38.3528 61.4072 36.7636 61.4385C36.7145 61.4379 36.6687 61.4207 36.6345 61.3866C36.6003 61.3525 36.5814 61.306 36.5821 61.2577C36.5866 60.9531 36.5893 60.6266 36.5782 60.3032C36.5767 60.2554 36.5943 60.2089 36.6272 60.1743C36.6602 60.1397 36.7057 60.1198 36.7534 60.1191C38.6097 60.0917 40.4238 60.3656 42.1487 60.9353C42.2023 60.9529 42.2442 60.9949 42.262 61.0485C42.2796 61.1021 42.2709 61.1607 42.2385 61.2069C42.1954 61.268 42.1559 61.3324 42.1212 61.3981C42.1142 61.4112 42.1058 61.4233 42.0959 61.4343C41.9296 61.6179 41.7539 61.8146 41.5934 62.0234C41.5591 62.068 41.5065 62.0929 41.4522 62.0929ZM37.0592 61.0794C38.5395 61.0794 39.9935 61.2909 41.3875 61.709C41.53 61.5312 41.6816 61.3612 41.8172 61.2114C41.8185 61.2089 41.8199 61.2064 41.8213 61.2039C40.2774 60.7187 38.6615 60.4732 37.011 60.4732C36.987 60.4732 36.963 60.4733 36.939 60.4735C36.943 60.6789 36.9426 60.8829 36.9405 61.08C36.9801 61.0795 37.0197 61.0794 37.0592 61.0794Z" fill="#1D1D1B"/>
<path d="M45.8685 64.2789C45.8331 64.2789 45.7975 64.2684 45.7667 64.2468C44.7291 63.5227 43.6361 62.929 42.5182 62.4821C42.4681 62.4621 42.4298 62.4204 42.414 62.3688C42.3982 62.317 42.4068 62.2611 42.4372 62.2164C42.5346 62.0737 42.6254 61.9186 42.7132 61.7688C42.7709 61.6702 42.8306 61.5684 42.8926 61.469C42.9116 61.4386 42.9307 61.4085 42.95 61.3786C42.9963 61.3065 43.0872 61.2778 43.1667 61.31C44.4175 61.8177 45.6339 62.4928 46.782 63.3167C46.83 63.3511 46.8578 63.4072 46.8563 63.4662C46.8547 63.5253 46.8239 63.5797 46.7741 63.6115C46.4645 63.8092 46.2025 64.016 45.9954 64.2259C45.9608 64.2608 45.9148 64.2789 45.8685 64.2789ZM42.8506 62.2331C43.8807 62.6618 44.8879 63.2118 45.8494 63.871C46.0001 63.7302 46.1722 63.5918 46.364 63.4573C45.3435 62.7467 44.2709 62.1553 43.1705 61.6966C43.1194 61.7796 43.0693 61.8654 43.0205 61.9486C42.9655 62.0425 42.9095 62.1383 42.8506 62.2331Z" fill="#1D1D1B"/>
<path d="M31.0704 62.5171C31.0121 62.5171 30.9559 62.4885 30.9222 62.4378C30.7251 62.1424 30.543 61.8794 30.3082 61.6526C30.2642 61.61 30.2451 61.5477 30.2577 61.4878C30.2704 61.4279 30.3129 61.3787 30.3704 61.3575C31.0276 61.1153 31.6919 60.9057 32.3449 60.7347C33.4121 60.455 34.5031 60.2685 35.5874 60.1801C35.6373 60.1768 35.686 60.193 35.7225 60.2267C35.7591 60.2604 35.7799 60.3079 35.7799 60.3576V61.3281C35.7799 61.4202 35.7097 61.4971 35.618 61.5053C34.6657 61.5919 33.6953 61.7626 32.7336 62.0127C32.2069 62.1496 31.6823 62.3113 31.1298 62.5069C31.1103 62.5138 31.0903 62.5171 31.0704 62.5171ZM30.7475 61.5997C30.8906 61.7651 31.0175 61.9426 31.1413 62.1255C31.6561 61.9467 32.1489 61.7967 32.644 61.6679C33.57 61.4272 34.5043 61.2586 35.4238 61.1661V60.5517C34.4235 60.6441 33.4191 60.8212 32.4351 61.0789C31.8771 61.2252 31.3106 61.4 30.7475 61.5997Z" fill="#1D1D1B"/>
<path d="M26.9912 64.4664C26.9549 64.4664 26.9187 64.4554 26.888 64.4335C26.588 64.22 26.2807 64.0307 25.9745 63.8707C25.9187 63.8415 25.8824 63.785 25.8792 63.7222C25.8758 63.6593 25.9059 63.5994 25.9583 63.5646C26.5212 63.1902 27.7089 62.4585 29.3393 61.7643C29.4233 61.7284 29.5211 61.7621 29.5652 61.8425C29.6534 62.0034 29.7729 62.164 29.8783 62.3056L29.907 62.3443C29.9672 62.4254 30.0474 62.5308 30.1345 62.6288C30.1726 62.6718 30.1877 62.7307 30.1749 62.7869C30.162 62.8429 30.1229 62.8894 30.0697 62.9115C28.7473 63.4622 27.7168 64.0465 27.0852 64.4396C27.0564 64.4575 27.0237 64.4664 26.9912 64.4664ZM26.4034 63.6997C26.6028 63.8141 26.8015 63.9397 26.9974 64.0752C27.6084 63.7004 28.5393 63.1796 29.7118 62.6761C29.6784 62.6331 29.6479 62.5924 29.6212 62.5564L29.5926 62.518C29.5095 62.4063 29.4182 62.2835 29.3357 62.1533C28.0115 62.7282 26.9994 63.3198 26.4034 63.6997Z" fill="#1D1D1B"/>
<path d="M21.3879 22.0716C20.9841 22.5472 20.5353 22.9421 20.0329 23.2472C19.7367 23.4267 19.4137 23.5793 19.0546 23.687C19.0546 23.7408 19.0546 23.9203 19.0637 24.2075C19.0637 24.5037 19.0726 24.6832 19.0726 24.7371C19.1444 24.8806 19.1893 25.0422 19.1893 25.2397C19.1893 25.5089 19.2162 25.7961 19.288 26.1013C19.2521 26.2807 19.1534 26.3794 19.0008 26.3794C18.6957 26.3794 18.5521 25.7422 18.5521 24.4678C18.5521 23.8576 18.606 22.9512 18.7227 21.7485C18.4983 21.6767 18.3906 21.5512 18.3906 21.3806C18.3906 21.2639 18.5163 21.0755 18.7676 20.8152C19.6829 19.8819 20.4727 19.4062 21.1278 19.4062C21.3971 19.4062 21.6304 19.523 21.8279 19.7383C22.0074 19.9626 22.1061 20.223 22.1061 20.5191C22.1059 20.9857 21.8636 21.5062 21.3879 22.0716ZM21.4597 20.1511C21.3699 20.0524 21.2443 19.9985 21.1008 19.9985C20.6699 19.9985 20.0687 20.3485 19.2968 21.0305C19.243 21.5511 19.1712 22.2511 19.0995 23.1305C19.6918 22.8792 20.2482 22.5023 20.7688 21.9997C21.3252 21.4433 21.6034 20.9408 21.6034 20.483C21.6034 20.3575 21.5494 20.2408 21.4597 20.1511Z" fill="black"/>
<path d="M28.0903 26.4955C28.0184 26.4955 27.9287 26.3878 27.839 26.1814C27.7312 25.975 27.6864 25.8314 27.6864 25.7416C27.6864 25.7057 27.6953 25.6608 27.7222 25.607C27.6684 25.3916 27.5787 25.0775 27.471 24.6558C26.9954 24.5211 26.439 24.4494 25.7928 24.4494C25.4787 24.4494 25.0389 24.4853 24.4646 24.5391C24.3568 25.0597 24.312 25.4545 24.312 25.7058C24.312 25.8046 24.3209 25.9122 24.3389 26.0289C24.285 26.1725 24.1953 26.2442 24.0786 26.2442C23.8454 26.2442 23.7377 26.0737 23.7377 25.7506C23.7556 25.616 23.7825 25.4365 23.8184 25.2031C23.8364 25.0775 23.8723 24.8711 23.9261 24.5929C23.7108 24.6288 23.4504 24.6737 23.1543 24.7096C22.9569 24.7096 22.8672 24.6288 22.8672 24.4494C22.8672 24.2878 22.9749 24.1981 23.1992 24.1622C23.3249 24.1443 23.6031 24.1084 24.0339 24.0635C24.2851 22.9596 24.7428 21.5776 25.4159 19.9262C25.5775 19.5044 25.721 19.2891 25.8467 19.2891C26.0082 19.2891 26.1698 19.4955 26.3403 19.8903C27.2826 22.1519 27.9467 24.1532 28.3326 25.9122C28.3686 26.1096 28.3955 26.2263 28.3955 26.2622C28.3954 26.4148 28.2876 26.4955 28.0903 26.4955ZM26.8427 22.6096C26.4928 21.5865 26.1607 20.7609 25.8556 20.1327C25.3261 21.425 24.9043 22.7083 24.5811 24.0007C25.1824 23.9468 25.6043 23.9199 25.8466 23.9199C26.2953 23.9199 26.7799 23.9737 27.3095 24.0725C27.1479 23.5339 26.9864 23.0494 26.8427 22.6096Z" fill="black"/>
<path d="M32.1745 20.2722C31.663 20.3979 31.2053 20.5953 30.8015 20.8555C30.245 21.2235 29.9668 21.6273 29.9668 22.0671C29.9668 22.3004 30.0566 22.4799 30.245 22.6146C30.3168 22.6774 30.5322 22.7851 30.8912 22.9467C31.331 23.144 31.6271 23.3146 31.7886 23.4582C32.0399 23.7005 32.1745 24.0236 32.1745 24.4185C32.1745 24.921 31.9233 25.3607 31.4207 25.7198C30.963 26.0428 30.4874 26.2044 29.9848 26.2044C29.5001 26.2044 29.2578 26.0788 29.2578 25.8275C29.2578 25.7557 29.2847 25.6928 29.3387 25.6211C29.3925 25.5583 29.4553 25.5224 29.536 25.5224C29.5899 25.5224 29.6617 25.5404 29.7693 25.5583C29.877 25.5942 29.9578 25.6032 30.0116 25.6032C30.3526 25.6032 30.7026 25.4954 31.0527 25.2622C31.4296 25.0109 31.627 24.7147 31.627 24.3647C31.627 24.1403 31.5462 23.9608 31.3847 23.8172C31.277 23.7453 31.0436 23.6198 30.6667 23.4402C30.218 23.2429 29.9398 23.0813 29.8141 22.9736C29.5449 22.7492 29.4193 22.4351 29.4193 22.0313C29.4193 21.5646 29.6526 21.1158 30.1282 20.6941C30.4692 20.389 30.9001 20.1198 31.4385 19.9044C31.5462 19.7159 31.7257 19.6172 31.9591 19.6172C32.2372 19.6172 32.3808 19.7428 32.3808 19.9851C32.3809 20.1467 32.3091 20.2363 32.1745 20.2722Z" fill="black"/>
<path d="M36.2487 20.2722C35.7372 20.3979 35.2795 20.5953 34.8757 20.8555C34.3192 21.2235 34.041 21.6273 34.041 22.0671C34.041 22.3004 34.1308 22.4799 34.3192 22.6146C34.391 22.6774 34.6064 22.7851 34.9654 22.9467C35.4052 23.144 35.7013 23.3146 35.8628 23.4582C36.1141 23.7005 36.2487 24.0236 36.2487 24.4185C36.2487 24.921 35.9975 25.3607 35.4949 25.7198C35.0372 26.0428 34.5616 26.2044 34.059 26.2044C33.5743 26.2044 33.332 26.0788 33.332 25.8275C33.332 25.7557 33.359 25.6928 33.4129 25.6211C33.4667 25.5583 33.5295 25.5224 33.6102 25.5224C33.6641 25.5224 33.7359 25.5404 33.8435 25.5583C33.9512 25.5942 34.032 25.6032 34.0858 25.6032C34.4269 25.6032 34.7768 25.4954 35.1269 25.2622C35.5038 25.0109 35.7012 24.7147 35.7012 24.3647C35.7012 24.1403 35.6204 23.9608 35.4589 23.8172C35.3512 23.7453 35.1179 23.6198 34.7409 23.4402C34.2922 23.2429 34.0141 23.0813 33.8883 22.9736C33.6191 22.7492 33.4935 22.4351 33.4935 22.0313C33.4935 21.5646 33.7268 21.1158 34.2024 20.6941C34.5434 20.389 34.9743 20.1198 35.5127 19.9044C35.6204 19.7159 35.7999 19.6172 36.0333 19.6172C36.3115 19.6172 36.455 19.7428 36.455 19.9851C36.4551 20.1467 36.3834 20.2363 36.2487 20.2722Z" fill="black"/>
<path d="M40.4934 22.0638C40.0896 22.5394 39.6408 22.9343 39.1383 23.2394C38.8421 23.4189 38.5191 23.5715 38.1601 23.6792C38.1601 23.733 38.1601 23.9125 38.1691 24.1997C38.1691 24.4959 38.1781 24.6754 38.1781 24.7292C38.2499 24.8728 38.2947 25.0344 38.2947 25.2319C38.2947 25.5011 38.3216 25.7883 38.3935 26.0934C38.3576 26.2729 38.2588 26.3716 38.1063 26.3716C37.8012 26.3716 37.6576 25.7344 37.6576 24.46C37.6576 23.8498 37.7114 22.9434 37.8281 21.7407C37.6038 21.6689 37.4961 21.5434 37.4961 21.3728C37.4961 21.2561 37.6217 21.0677 37.873 20.8074C38.7884 19.8741 39.5781 19.3984 40.2333 19.3984C40.5025 19.3984 40.7359 19.5152 40.9333 19.7305C41.1128 19.9548 41.2115 20.2151 41.2115 20.5113C41.2114 20.9779 40.969 21.4984 40.4934 22.0638ZM40.5651 20.1433C40.4754 20.0446 40.3498 19.9906 40.2062 19.9906C39.7754 19.9906 39.1741 20.3407 38.4023 21.0227C38.3485 21.5433 38.2766 22.2433 38.2049 23.1227C38.7972 22.8714 39.3536 22.4945 39.8742 21.9919C40.4307 21.4355 40.7089 20.933 40.7089 20.4752C40.7088 20.3497 40.6549 20.2329 40.5651 20.1433Z" fill="black"/>
<path d="M46.8269 24.9925C46.2973 25.5489 45.6512 25.8181 44.8883 25.8181C44.1794 25.8181 43.5422 25.5938 42.9857 25.145C42.3755 24.6604 42.0703 24.0592 42.0703 23.3412C42.0703 22.4437 42.4922 21.645 43.3358 20.927C43.7217 20.6039 44.0537 20.3885 44.3229 20.2988C44.3857 20.0476 44.6101 19.9219 44.987 19.9219C45.8037 19.9219 46.4589 20.218 46.9435 20.8014C47.3922 21.3579 47.6256 22.0758 47.6256 22.9463C47.6256 23.7539 47.3563 24.436 46.8269 24.9925ZM46.6383 21.3218C46.3332 20.927 45.9563 20.6757 45.4896 20.55C45.4717 20.559 45.3999 20.5679 45.2922 20.5859C44.8525 20.6667 44.4307 20.8461 44.0178 21.1154C43.605 21.3936 43.2729 21.7257 43.0217 22.1026C42.7525 22.5154 42.6268 22.8834 42.6268 23.2065C42.6268 23.8347 42.8691 24.3372 43.3537 24.7142C43.7845 25.0732 44.314 25.2437 44.9332 25.2437C45.5435 25.2437 46.055 25.0373 46.4679 24.6155C46.8628 24.2027 47.0692 23.6642 47.0692 23.018C47.0692 22.2911 46.9255 21.7256 46.6383 21.3218Z" fill="black"/>
<path d="M51.2346 23.0556C50.7948 23.3607 50.346 23.5942 49.8974 23.7646C51.5487 24.6082 52.3833 25.3621 52.3833 26.0082C52.3833 26.2056 52.2935 26.3044 52.132 26.3044C51.9884 26.3044 51.9077 26.1877 51.8808 25.9723C51.6564 25.4159 50.8576 24.8236 49.4845 24.2134C49.5025 24.698 49.5205 25.0839 49.5563 25.38C49.5922 25.739 49.6102 25.9185 49.6102 25.9185C49.6102 26.116 49.5294 26.2237 49.3679 26.2237C49.2243 26.2237 49.1346 26.1249 49.0987 25.9365C49.0269 25.5596 48.991 24.9044 48.991 23.98H48.9191C48.6859 23.98 48.5781 23.8993 48.5781 23.7198C48.5781 23.5493 48.7218 23.4416 49.0089 23.4057C49.0179 23.2083 49.0897 22.4992 49.2243 21.2967C48.991 21.2429 48.8743 21.1262 48.8743 20.9468C48.8743 20.839 48.9461 20.6955 49.0896 20.5339C49.3768 20.2198 49.7178 19.9506 50.1038 19.7261C50.5345 19.4929 50.9204 19.3672 51.2794 19.3672C51.6563 19.3672 51.9884 19.5288 52.2755 19.8339C52.5448 20.148 52.6884 20.507 52.6884 20.9018C52.6884 21.6556 52.2037 22.3736 51.2346 23.0556ZM51.9525 20.2555C51.7729 20.085 51.5756 19.9953 51.3692 19.9953C50.8217 19.9953 50.2743 20.2107 49.7178 20.6415C49.655 21.2966 49.5832 22.1941 49.4935 23.3338C49.9243 23.2351 50.3731 23.0287 50.8486 22.7146C51.764 22.1223 52.2217 21.512 52.2217 20.8838C52.2217 20.6505 52.132 20.4351 51.9525 20.2555Z" fill="black"/>
<path d="M58.6493 19.6356L57.8954 19.9497C57.7787 19.9407 57.689 19.9048 57.6262 19.851L56.4684 20.1471C56.3518 21.5023 56.2979 22.7228 56.2979 23.7997C56.2979 24.2843 56.3069 24.7062 56.3338 25.0651C56.4146 25.1549 56.4595 25.2715 56.4595 25.4151V25.9088C56.4595 26.1959 56.3697 26.3665 56.1903 26.4203C56.0018 26.4024 55.9031 26.3216 55.8851 26.1601C55.7954 25.3973 55.7595 24.4639 55.7595 23.3601C55.7595 22.7319 55.8044 21.7087 55.9121 20.2818C55.4454 20.3985 54.9877 20.5062 54.521 20.6139C54.2878 20.6767 54.0095 20.7395 53.7044 20.8024C53.5338 20.8024 53.4531 20.7216 53.4531 20.5421C53.4531 20.3626 53.5249 20.255 53.6774 20.2191C54.3864 20.0575 55.4364 19.8152 56.8275 19.4742C57.2583 19.3665 57.8685 19.2319 58.6583 19.0703C58.7481 19.0883 58.8109 19.178 58.8468 19.3575C58.8467 19.501 58.7749 19.5907 58.6493 19.6356Z" fill="black"/>
</svg>
