<svg width="65.000000" height="84.000000" viewBox="0 0 65 84" fill="none" xmlns="http://www.w3.org/2000/svg"
     xmlns:xlink="http://www.w3.org/1999/xlink">
  <desc>
    Created with Pixso.
  </desc>
  <defs>
    <clipPath id="clip1_67">
      <rect id="Frame 427319844" width="8.400002" height="62.160015" transform="translate(5.981438 15.119125)"
            fill="white" fill-opacity="0"/>
    </clipPath>
    <clipPath id="clip1_88">
      <rect id="Frame 427319846" width="55.440014" height="7.560002" transform="translate(5.981438 15.119125)"
            fill="white" fill-opacity="0"/>
    </clipPath>
    <clipPath id="clip1_109">
      <rect id="Frame 427319845" width="43.680012" height="54.600014" transform="translate(14.379875 22.679672)"
            fill="white" fill-opacity="0"/>
    </clipPath>
  </defs>
  <path id="Rectangle 5806"
        d="M18.57 22.67L57.21 22.67C59.53 22.67 61.41 24.56 61.41 26.87L61.41 75.59C61.41 77.91 59.53 79.79 57.21 79.79L24.45 79.79C18.89 79.79 14.37 75.28 14.37 69.71L14.37 26.87C14.37 24.56 16.26 22.67 18.57 22.67Z"
        fill="#80ED99" fill-opacity="1.000000" fill-rule="evenodd"/>
  <g clip-path="url(#clip1_67)">
    <path id="Vector"
          d="M57.27 77.11C57.26 77.11 57.26 77.11 57.25 77.11C38.85 76.52 22.32 76.43 6.7 76.84C6.58 76.85 6.46 76.8 6.38 76.72C6.29 76.64 6.24 76.52 6.24 76.4C5.95 60.23 5.97 43.95 5.99 28.2C5.99 24.07 5.99 19.92 5.99 15.77C5.99 15.65 6.04 15.54 6.12 15.45C6.21 15.37 6.32 15.32 6.44 15.32C22.51 15.32 39.12 15.31 56.72 15.93C56.97 15.94 57.16 16.15 57.15 16.4C56.53 36.39 56.72 56.66 57.72 76.64C57.72 76.77 57.68 76.89 57.59 76.98C57.5 77.07 57.39 77.11 57.27 77.11ZM26.5 75.69C36.1 75.69 46.13 75.86 56.79 76.2C55.83 56.5 55.64 36.53 56.24 16.82C38.99 16.22 22.68 16.22 6.89 16.22C6.89 20.22 6.89 24.22 6.89 28.2C6.87 43.8 6.86 59.91 7.13 75.93C13.42 75.77 19.85 75.69 26.5 75.69Z"
          fill="#000000" fill-opacity="1.000000" fill-rule="nonzero"/>
    <path id="Vector"
          d="M57.25 77.11C57.26 77.11 57.26 77.11 57.27 77.11C57.39 77.11 57.5 77.07 57.59 76.98C57.68 76.89 57.72 76.77 57.72 76.64C56.72 56.66 56.53 36.39 57.15 16.4C57.16 16.15 56.97 15.94 56.72 15.93C39.12 15.31 22.51 15.32 6.44 15.32C6.32 15.32 6.21 15.37 6.12 15.45C6.04 15.54 5.99 15.65 5.99 15.77C5.99 19.92 5.99 24.07 5.99 28.2L5.99 28.28C5.97 44 5.96 60.25 6.24 76.4C6.24 76.52 6.29 76.64 6.38 76.72C6.46 76.8 6.58 76.85 6.7 76.84C22.32 76.43 38.85 76.52 57.25 77.11ZM57.27 76.86L57.26 76.86Q43.47 76.42 30.93 76.35Q18.42 76.28 6.69 76.59L6.69 76.59L6.68 76.59Q6.67 76.59 6.66 76.59Q6.6 76.59 6.55 76.54Q6.52 76.51 6.51 76.47Q6.49 76.44 6.49 76.4Q6.3 65.65 6.25 52.18Q6.22 44.14 6.24 28.29L6.24 28.24L6.24 28.23L6.24 28.23L6.24 28.23L6.24 28.23L6.24 28.22L6.24 28.2L6.25 15.77Q6.25 15.73 6.26 15.7Q6.27 15.66 6.3 15.63Q6.33 15.6 6.36 15.59Q6.4 15.57 6.44 15.57Q14.48 15.57 18.6 15.58Q25.43 15.59 31 15.65Q44.99 15.77 56.71 16.18Q56.75 16.19 56.78 16.2Q56.82 16.22 56.85 16.25Q56.87 16.28 56.89 16.31Q56.9 16.35 56.9 16.39Q56.44 31.39 56.58 46.53Q56.72 61.66 57.46 76.65Q57.47 76.7 57.45 76.73Q57.44 76.77 57.41 76.8Q57.38 76.83 57.34 76.85Q57.31 76.86 57.27 76.86L57.27 76.86ZM57.06 76.46L57.05 76.19Q56.32 61.42 56.18 46.51Q56.04 31.6 56.49 16.82L56.5 16.57L56.25 16.56Q44.74 16.17 31.02 16.04Q25.53 15.99 18.84 15.98Q14.66 15.97 6.89 15.97L6.64 15.97L6.63 28.2L6.63 28.21Q6.62 43.93 6.65 51.91Q6.7 65.27 6.88 75.94L6.88 76.19L7.14 76.18Q16.58 75.94 26.5 75.94Q40.81 75.94 56.79 76.45L57.06 76.46ZM56.54 76.19C56.63 76.19 56.71 76.2 56.79 76.2C56.79 76.11 56.79 76.03 56.78 75.95C55.83 56.33 55.65 36.44 56.24 16.82C38.99 16.22 22.68 16.22 6.89 16.22C6.89 16.3 6.89 16.39 6.89 16.47C6.89 20.03 6.89 23.58 6.89 27.12L6.89 27.13C6.89 27.48 6.89 27.84 6.89 28.2L6.89 28.21C6.87 43.72 6.86 59.75 7.13 75.68C7.13 75.76 7.13 75.85 7.13 75.93L7.13 75.93C7.22 75.93 7.3 75.93 7.38 75.93C13.59 75.77 19.94 75.69 26.5 75.69C36.02 75.69 45.97 75.86 56.54 76.19Z"
          fill="#FFFFFF" fill-opacity="1.000000" fill-rule="evenodd"/>
    <path id="Vector"
          d="M11.37 72.46C11.25 72.46 11.14 72.41 11.06 72.33C10.97 72.25 10.92 72.13 10.92 72.01C10.81 58.95 10.56 45.86 10.33 33.21C10.24 28.62 10.16 24.03 10.08 19.44C10.08 19.31 10.12 19.2 10.21 19.11C10.29 19.02 10.41 18.97 10.53 18.98C26.02 19.13 39.54 19.15 51.86 19.03C51.97 19.02 52.1 19.08 52.19 19.17C52.27 19.26 52.32 19.38 52.31 19.51C51.43 34.76 51.64 50.93 52.99 71.92C53 72.05 52.95 72.17 52.86 72.26C52.78 72.36 52.65 72.41 52.53 72.4L52.34 72.4C38.89 72.17 24.99 71.94 11.39 72.46C11.38 72.46 11.37 72.46 11.37 72.46ZM10.99 19.88C11.06 24.32 11.15 28.76 11.23 33.19C11.46 45.7 11.7 58.63 11.81 71.54C25.2 71.05 38.85 71.27 52.06 71.49C50.75 50.92 50.54 34.97 51.39 19.93C39.31 20.05 26.09 20.03 10.99 19.88Z"
          fill="#000000" fill-opacity="1.000000" fill-rule="nonzero"/>
    <path id="Vector"
          d="M51.86 19.03C39.54 19.15 26.02 19.13 10.53 18.98C10.41 18.97 10.29 19.02 10.21 19.11C10.12 19.2 10.08 19.31 10.08 19.44C10.16 24.03 10.24 28.62 10.33 33.21C10.56 45.86 10.81 58.95 10.92 72.01C10.92 72.13 10.97 72.25 11.06 72.33C11.14 72.41 11.25 72.46 11.37 72.46L11.37 72.46C11.37 72.46 11.38 72.46 11.39 72.46C24.99 71.94 38.89 72.17 52.33 72.4L52.34 72.4L52.53 72.4C52.65 72.41 52.78 72.36 52.86 72.26C52.95 72.17 53 72.05 52.99 71.92C51.64 50.93 51.43 34.76 52.31 19.51C52.32 19.38 52.27 19.26 52.19 19.17C52.1 19.08 51.97 19.02 51.86 19.03ZM11.39 72.21Q20.44 71.86 31.92 71.9Q36.49 71.91 42.18 71.99Q45.6 72.03 52.34 72.15L52.34 72.15L52.53 72.15Q52.58 72.15 52.62 72.14Q52.65 72.12 52.68 72.09Q52.71 72.06 52.72 72.02Q52.74 71.99 52.74 71.94Q51.72 56.19 51.56 43.57Q51.4 30.94 52.06 19.49Q52.06 19.45 52.05 19.41Q52.03 19.37 52.01 19.34Q51.98 19.31 51.93 19.3Q51.9 19.28 51.87 19.28L51.87 19.28L51.86 19.28Q33.55 19.46 10.53 19.23Q10.5 19.23 10.47 19.24Q10.42 19.25 10.39 19.29Q10.36 19.32 10.34 19.35Q10.33 19.39 10.33 19.43L10.51 29.71L10.58 33.21L11.16 70.26L11.17 72.01Q11.17 72.05 11.19 72.09Q11.2 72.12 11.23 72.15L11.23 72.15Q11.26 72.18 11.3 72.19Q11.33 72.21 11.37 72.21L11.37 72.21Q11.38 72.21 11.39 72.21ZM10.98 33.2L10.98 33.2L11.55 70.32L11.57 71.8L11.82 71.79Q20.74 71.46 32 71.5Q36.5 71.52 42.08 71.59Q45.51 71.64 52.05 71.75L52.33 71.75L52.31 71.48Q51.33 56.05 51.17 43.63Q51 31.21 51.64 19.95L51.65 19.68L10.73 19.63L10.91 29.63L10.98 33.2ZM11.81 71.29C11.7 58.46 11.46 45.62 11.23 33.19C11.15 28.84 11.07 24.49 10.99 20.13C10.99 20.05 10.99 19.97 10.99 19.88C11.07 19.88 11.15 19.88 11.24 19.88C26.13 20.03 39.2 20.04 51.13 19.94C51.22 19.94 51.3 19.93 51.39 19.93C51.38 20.02 51.38 20.1 51.37 20.19C50.55 35.08 50.75 50.9 52.04 71.24C52.05 71.33 52.05 71.41 52.06 71.49C51.97 71.49 51.89 71.49 51.81 71.49C38.75 71.27 25.28 71.05 12.07 71.53C11.98 71.53 11.9 71.54 11.81 71.54C11.81 71.46 11.81 71.37 11.81 71.29Z"
          fill="#FFFFFF" fill-opacity="1.000000" fill-rule="evenodd"/>
    <path id="Vector"
          d="M18.66 34.53C18.66 34.53 18.65 34.53 18.65 34.53C18.48 34.53 18.33 34.43 18.26 34.28C17.75 33.24 17.13 32.25 16.41 31.34C16.26 31.14 16.29 30.86 16.49 30.71C16.68 30.55 16.97 30.59 17.12 30.78C17.7 31.52 18.22 32.3 18.67 33.12L20.69 29.35C20.81 29.14 21.08 29.05 21.3 29.17C21.52 29.29 21.6 29.56 21.48 29.78L19.06 34.3C18.98 34.44 18.82 34.53 18.66 34.53Z"
          fill="#000000" fill-opacity="1.000000" fill-rule="nonzero"/>
    <path id="Vector"
          d="M18.52 32.86C18.1 32.14 17.64 31.44 17.12 30.78C16.97 30.59 16.68 30.55 16.49 30.71C16.29 30.86 16.26 31.14 16.41 31.34C17.13 32.25 17.75 33.24 18.26 34.28C18.33 34.43 18.48 34.53 18.65 34.53L18.66 34.53C18.82 34.53 18.98 34.44 19.06 34.3L21.48 29.78C21.6 29.56 21.52 29.29 21.3 29.17C21.08 29.05 20.81 29.14 20.69 29.35L18.81 32.86L18.67 33.12C18.62 33.03 18.57 32.95 18.52 32.86ZM18.65 34.28L18.66 34.28Q18.72 34.28 18.76 34.25Q18.81 34.23 18.83 34.18L21.26 29.66Q21.28 29.63 21.28 29.59Q21.29 29.55 21.28 29.51Q21.26 29.47 21.24 29.44Q21.21 29.41 21.18 29.39Q21.14 29.37 21.11 29.37Q21.07 29.37 21.03 29.38Q20.99 29.39 20.96 29.42Q20.93 29.44 20.91 29.47L18.67 33.65L18.45 33.24Q18.11 32.64 17.73 32.06Q17.35 31.48 16.92 30.94Q16.9 30.91 16.86 30.89Q16.83 30.87 16.79 30.87Q16.75 30.86 16.71 30.87Q16.68 30.88 16.64 30.91Q16.61 30.93 16.59 30.97Q16.57 31 16.57 31.04Q16.56 31.08 16.57 31.12Q16.58 31.15 16.61 31.18Q17.27 32.02 17.81 32.93Q18.17 33.53 18.48 34.17Q18.51 34.22 18.55 34.25Q18.59 34.28 18.65 34.28Z"
          fill="#FFFFFF" fill-opacity="1.000000" fill-rule="evenodd"/>
    <path id="Vector"
          d="M18.66 46.4C18.66 46.4 18.65 46.4 18.65 46.4C18.48 46.39 18.33 46.3 18.26 46.15C17.75 45.11 17.13 44.12 16.41 43.21C16.26 43.01 16.29 42.73 16.49 42.57C16.68 42.42 16.96 42.45 17.12 42.65C17.7 43.38 18.21 44.17 18.67 44.98L20.69 41.22C20.81 41 21.08 40.92 21.3 41.04C21.52 41.15 21.6 41.43 21.48 41.65L19.06 46.16C18.98 46.31 18.82 46.4 18.66 46.4Z"
          fill="#000000" fill-opacity="1.000000" fill-rule="nonzero"/>
    <path id="Vector"
          d="M18.52 44.73C18.1 44 17.63 43.31 17.12 42.65C16.96 42.45 16.68 42.42 16.49 42.57C16.29 42.73 16.26 43.01 16.41 43.21C17.13 44.12 17.75 45.11 18.26 46.15C18.33 46.3 18.48 46.39 18.65 46.4L18.66 46.4C18.82 46.4 18.98 46.31 19.06 46.16L21.48 41.65C21.6 41.43 21.52 41.15 21.3 41.04C21.08 40.92 20.81 41 20.69 41.22L18.81 44.72L18.67 44.98C18.62 44.9 18.57 44.81 18.52 44.73ZM18.65 46.15L18.66 46.15Q18.72 46.15 18.76 46.12Q18.81 46.09 18.83 46.04L21.26 41.53Q21.28 41.49 21.28 41.45Q21.29 41.42 21.27 41.38Q21.26 41.34 21.24 41.31Q21.21 41.28 21.18 41.26Q21.14 41.24 21.11 41.24Q21.07 41.23 21.03 41.24Q20.99 41.26 20.96 41.28Q20.93 41.3 20.91 41.34L18.67 45.51L18.45 45.11Q18.01 44.31 17.49 43.58Q17.22 43.18 16.92 42.81Q16.89 42.77 16.86 42.75Q16.83 42.74 16.79 42.73Q16.75 42.73 16.71 42.74Q16.68 42.75 16.64 42.77Q16.61 42.8 16.59 42.83Q16.57 42.86 16.57 42.9Q16.56 42.95 16.57 42.98Q16.58 43.02 16.61 43.05Q17.08 43.65 17.5 44.29Q18.04 45.13 18.48 46.03Q18.51 46.09 18.55 46.12Q18.59 46.14 18.65 46.15Z"
          fill="#FFFFFF" fill-opacity="1.000000" fill-rule="evenodd"/>
    <path id="Vector"
          d="M17.77 58.26C17.77 58.26 17.77 58.26 17.76 58.26C17.59 58.26 17.44 58.16 17.37 58.01C16.86 56.97 16.24 55.98 15.52 55.07C15.37 54.87 15.41 54.59 15.6 54.44C15.8 54.28 16.08 54.32 16.23 54.51C16.81 55.25 17.33 56.03 17.78 56.85L19.8 53.08C19.92 52.86 20.19 52.78 20.41 52.9C20.63 53.02 20.71 53.29 20.6 53.51L18.17 58.02C18.09 58.17 17.94 58.26 17.77 58.26Z"
          fill="#000000" fill-opacity="1.000000" fill-rule="nonzero"/>
    <path id="Vector"
          d="M17.63 56.59C17.22 55.86 16.75 55.17 16.23 54.51C16.08 54.32 15.8 54.28 15.6 54.44C15.41 54.59 15.37 54.87 15.52 55.07C16.24 55.98 16.86 56.97 17.37 58.01C17.44 58.16 17.59 58.26 17.76 58.26L17.77 58.26C17.94 58.26 18.09 58.17 18.17 58.02L20.6 53.51C20.71 53.29 20.63 53.02 20.41 52.9C20.19 52.78 19.92 52.86 19.8 53.08L17.92 56.58L17.78 56.85C17.73 56.76 17.68 56.67 17.63 56.59ZM17.77 58.01L17.77 58.01Q17.83 58.01 17.88 57.98Q17.92 57.96 17.95 57.9L20.37 53.39Q20.39 53.35 20.4 53.32Q20.4 53.28 20.39 53.24Q20.38 53.2 20.35 53.17Q20.33 53.14 20.29 53.12Q20.26 53.1 20.22 53.1Q20.18 53.1 20.14 53.11Q20.1 53.12 20.07 53.14Q20.04 53.17 20.02 53.2L17.78 57.38L17.56 56.97Q17.23 56.38 16.86 55.81Q16.47 55.23 16.03 54.67Q16.01 54.64 15.98 54.62Q15.94 54.6 15.9 54.59Q15.86 54.59 15.82 54.6Q15.79 54.61 15.76 54.63Q15.72 54.66 15.71 54.69Q15.69 54.73 15.68 54.77Q15.68 54.81 15.69 54.84Q15.7 54.88 15.72 54.91Q16.35 55.71 16.87 56.57Q17.26 57.22 17.59 57.9Q17.62 57.95 17.67 57.98Q17.71 58.01 17.77 58.01Z"
          fill="#FFFFFF" fill-opacity="1.000000" fill-rule="evenodd"/>
    <path id="Vector"
          d="M29.32 34.73C28.15 34.73 26.98 34.72 25.82 34.71C25.57 34.71 25.37 34.51 25.37 34.26C25.37 34.01 25.57 33.81 25.82 33.81C25.82 33.81 25.82 33.81 25.82 33.81C32.81 33.88 39.89 33.75 46.87 33.44C47.11 33.42 47.32 33.62 47.34 33.87C47.35 34.12 47.15 34.33 46.91 34.34C41.08 34.6 35.18 34.73 29.32 34.73Z"
          fill="#000000" fill-opacity="1.000000" fill-rule="nonzero"/>
    <path id="Vector"
          d="M46.87 33.44C47.11 33.42 47.32 33.62 47.34 33.87C47.35 34.12 47.15 34.33 46.91 34.34C41.08 34.6 35.18 34.73 29.32 34.73Q27.57 34.73 25.82 34.71C25.57 34.71 25.37 34.51 25.37 34.26C25.37 34.01 25.57 33.81 25.82 33.81L25.82 33.81C32.81 33.88 39.89 33.75 46.87 33.44ZM25.82 34.46L25.82 34.46Q25.78 34.46 25.74 34.45Q25.71 34.43 25.68 34.4Q25.65 34.37 25.64 34.34Q25.62 34.3 25.62 34.26Q25.62 34.22 25.64 34.19Q25.65 34.15 25.68 34.12Q25.71 34.09 25.75 34.08Q25.78 34.07 25.82 34.07L25.82 34.07L25.82 34.07Q36.33 34.16 46.88 33.69L46.88 33.69L46.89 33.69Q46.91 33.69 46.93 33.69Q46.98 33.7 47.02 33.74Q47.05 33.77 47.07 33.81Q47.08 33.84 47.08 33.88Q47.09 33.92 47.07 33.96Q47.06 33.99 47.03 34.02Q47 34.05 46.97 34.07Q46.94 34.09 46.89 34.09Q38.12 34.48 29.32 34.48L25.82 34.46Z"
          fill="#FFFFFF" fill-opacity="1.000000" fill-rule="evenodd"/>
    <path id="Vector"
          d="M29.32 46.36C28.15 46.36 26.98 46.36 25.82 46.35C25.57 46.34 25.37 46.14 25.37 45.89C25.37 45.65 25.57 45.45 25.82 45.45C25.82 45.45 25.82 45.45 25.82 45.45C32.81 45.51 39.89 45.38 46.87 45.07C47.11 45.06 47.32 45.26 47.34 45.5C47.35 45.75 47.15 45.96 46.91 45.97C41.08 46.23 35.18 46.36 29.32 46.36Z"
          fill="#000000" fill-opacity="1.000000" fill-rule="nonzero"/>
    <path id="Vector"
          d="M46.87 45.07C47.11 45.06 47.32 45.26 47.34 45.5C47.35 45.75 47.15 45.96 46.91 45.97C41.08 46.23 35.18 46.36 29.32 46.36Q27.57 46.36 25.82 46.35C25.57 46.34 25.37 46.14 25.37 45.89C25.37 45.65 25.57 45.45 25.82 45.45L25.82 45.45C32.81 45.51 39.89 45.38 46.87 45.07ZM29.32 46.11L25.82 46.1Q25.78 46.09 25.74 46.08Q25.71 46.06 25.68 46.04Q25.65 46.01 25.64 45.97Q25.62 45.94 25.62 45.9Q25.62 45.86 25.64 45.82Q25.65 45.79 25.68 45.76Q25.71 45.73 25.75 45.71Q25.78 45.7 25.82 45.7L25.82 45.7Q36.33 45.79 46.88 45.33L46.88 45.33L46.89 45.33Q46.91 45.32 46.93 45.33Q46.98 45.34 47.02 45.37Q47.05 45.41 47.07 45.45Q47.08 45.48 47.08 45.52Q47.09 45.56 47.07 45.59Q47.06 45.63 47.03 45.66Q47 45.69 46.97 45.7Q46.94 45.72 46.89 45.72Q38.14 46.11 29.32 46.11Z"
          fill="#FFFFFF" fill-opacity="1.000000" fill-rule="evenodd"/>
    <path id="Vector"
          d="M29.64 58C28.47 58 27.3 58 26.13 57.99C25.88 57.98 25.68 57.78 25.68 57.53C25.68 57.28 25.89 57.09 26.13 57.09C26.13 57.09 26.14 57.09 26.14 57.09C33.12 57.15 40.2 57.02 47.18 56.71C47.19 56.71 47.19 56.71 47.2 56.71C47.44 56.71 47.64 56.9 47.65 57.14C47.66 57.39 47.47 57.6 47.22 57.61C41.39 57.87 35.49 58 29.64 58Z"
          fill="#000000" fill-opacity="1.000000" fill-rule="nonzero"/>
    <path id="Vector"
          d="M47.18 56.71C47.18 56.71 47.19 56.71 47.2 56.71L47.2 56.71C47.44 56.71 47.64 56.9 47.65 57.14C47.66 57.39 47.47 57.6 47.22 57.61C41.39 57.87 35.49 58 29.64 58C28.47 58 27.3 58 26.13 57.99C25.88 57.98 25.68 57.78 25.68 57.53C25.68 57.28 25.89 57.09 26.13 57.09L26.14 57.09C33.12 57.15 40.2 57.02 47.18 56.71ZM26.13 57.73L26.13 57.73Q26.09 57.73 26.05 57.72Q26.02 57.7 25.99 57.67Q25.96 57.65 25.95 57.61Q25.93 57.57 25.93 57.53Q25.93 57.49 25.95 57.46Q25.96 57.42 25.99 57.39Q26.02 57.37 26.06 57.35Q26.09 57.34 26.13 57.34L26.14 57.34L26.14 57.34Q36.64 57.43 47.19 56.96L47.19 56.96L47.19 56.96L47.2 56.96L47.2 56.96Q47.24 56.96 47.27 56.98Q47.31 56.99 47.33 57.02Q47.36 57.05 47.38 57.08Q47.39 57.11 47.4 57.15Q47.4 57.19 47.38 57.23Q47.37 57.27 47.34 57.3Q47.32 57.33 47.28 57.34Q47.25 57.36 47.21 57.36Q38.45 57.75 29.64 57.75L26.13 57.73Z"
          fill="#FFFFFF" fill-opacity="1.000000" fill-rule="evenodd"/>
    <g opacity="0.129400">
      <path id="Vector"
            d="M22.36 20.66C22.35 20.66 22.35 20.66 22.34 20.66C22.34 20.66 22.34 20.66 22.34 20.66C22.35 20.66 22.35 20.66 22.36 20.66Z"
            fill="#000000" fill-opacity="1.000000" fill-rule="nonzero"/>
      <path id="Vector"
            d="M22.34 20.66L22.34 20.66C22.34 20.66 22.34 20.66 22.34 20.66L22.34 20.66C22.34 20.66 22.35 20.66 22.35 20.66C22.35 20.66 22.35 20.66 22.35 20.66C22.35 20.66 22.35 20.66 22.35 20.66C22.35 20.66 22.34 20.66 22.34 20.66ZM22.36 20.66L22.35 20.66L22.35 20.66L22.35 20.66L22.36 20.66Z"
            fill="#FFFFFF" fill-opacity="1.000000" fill-rule="evenodd"/>
    </g>
  </g>
  <g clip-path="url(#clip1_88)">
    <path id="Vector"
          d="M57.27 77.11C57.26 77.11 57.26 77.11 57.25 77.11C38.85 76.52 22.32 76.43 6.7 76.84C6.58 76.85 6.46 76.8 6.38 76.72C6.29 76.64 6.24 76.52 6.24 76.4C5.95 60.23 5.97 43.95 5.99 28.2C5.99 24.07 5.99 19.92 5.99 15.77C5.99 15.65 6.04 15.54 6.12 15.45C6.21 15.37 6.32 15.32 6.44 15.32C22.51 15.32 39.12 15.31 56.72 15.93C56.97 15.94 57.16 16.15 57.15 16.4C56.53 36.39 56.72 56.66 57.72 76.64C57.72 76.77 57.68 76.89 57.59 76.98C57.5 77.07 57.39 77.11 57.27 77.11ZM26.5 75.69C36.1 75.69 46.13 75.86 56.79 76.2C55.83 56.5 55.64 36.53 56.24 16.82C38.99 16.22 22.68 16.22 6.89 16.22C6.89 20.22 6.89 24.22 6.89 28.2C6.87 43.8 6.86 59.91 7.13 75.93C13.42 75.77 19.85 75.69 26.5 75.69Z"
          fill="#000000" fill-opacity="1.000000" fill-rule="nonzero"/>
    <path id="Vector"
          d="M57.25 77.11C57.26 77.11 57.26 77.11 57.27 77.11C57.39 77.11 57.5 77.07 57.59 76.98C57.68 76.89 57.72 76.77 57.72 76.64C56.72 56.66 56.53 36.39 57.15 16.4C57.16 16.15 56.97 15.94 56.72 15.93C39.12 15.31 22.51 15.32 6.44 15.32C6.32 15.32 6.21 15.37 6.12 15.45C6.04 15.54 5.99 15.65 5.99 15.77C5.99 19.92 5.99 24.07 5.99 28.2L5.99 28.28C5.97 44 5.96 60.25 6.24 76.4C6.24 76.52 6.29 76.64 6.38 76.72C6.46 76.8 6.58 76.85 6.7 76.84C22.32 76.43 38.85 76.52 57.25 77.11ZM57.27 76.86L57.26 76.86Q43.47 76.42 30.93 76.35Q18.42 76.28 6.69 76.59L6.69 76.59L6.68 76.59Q6.67 76.59 6.66 76.59Q6.6 76.59 6.55 76.54Q6.52 76.51 6.51 76.47Q6.49 76.44 6.49 76.4Q6.3 65.65 6.25 52.18Q6.22 44.14 6.24 28.29L6.24 28.24L6.24 28.23L6.24 28.23L6.24 28.23L6.24 28.23L6.24 28.22L6.24 28.2L6.25 15.77Q6.25 15.73 6.26 15.7Q6.27 15.66 6.3 15.63Q6.33 15.6 6.36 15.59Q6.4 15.57 6.44 15.57Q14.48 15.57 18.6 15.58Q25.43 15.59 31 15.65Q44.99 15.77 56.71 16.18Q56.75 16.19 56.78 16.2Q56.82 16.22 56.85 16.25Q56.87 16.28 56.89 16.31Q56.9 16.35 56.9 16.39Q56.44 31.39 56.58 46.53Q56.72 61.66 57.46 76.65Q57.47 76.7 57.45 76.73Q57.44 76.77 57.41 76.8Q57.38 76.83 57.34 76.85Q57.31 76.86 57.27 76.86L57.27 76.86ZM57.06 76.46L57.05 76.19Q56.32 61.42 56.18 46.51Q56.04 31.6 56.49 16.82L56.5 16.57L56.25 16.56Q44.74 16.17 31.02 16.04Q25.53 15.99 18.84 15.98Q14.66 15.97 6.89 15.97L6.64 15.97L6.63 28.2L6.63 28.21Q6.62 43.93 6.65 51.91Q6.7 65.27 6.88 75.94L6.88 76.19L7.14 76.18Q16.58 75.94 26.5 75.94Q40.81 75.94 56.79 76.45L57.06 76.46ZM56.54 76.19C56.63 76.19 56.71 76.2 56.79 76.2C56.79 76.11 56.79 76.03 56.78 75.95C55.83 56.33 55.65 36.44 56.24 16.82C38.99 16.22 22.68 16.22 6.89 16.22C6.89 16.3 6.89 16.39 6.89 16.47C6.89 20.03 6.89 23.58 6.89 27.12L6.89 27.13C6.89 27.48 6.89 27.84 6.89 28.2L6.89 28.21C6.87 43.72 6.86 59.75 7.13 75.68C7.13 75.76 7.13 75.85 7.13 75.93L7.13 75.93C7.22 75.93 7.3 75.93 7.38 75.93C13.59 75.77 19.94 75.69 26.5 75.69C36.02 75.69 45.97 75.86 56.54 76.19Z"
          fill="#FFFFFF" fill-opacity="1.000000" fill-rule="evenodd"/>
    <path id="Vector"
          d="M11.37 72.46C11.25 72.46 11.14 72.41 11.06 72.33C10.97 72.25 10.92 72.13 10.92 72.01C10.81 58.95 10.56 45.86 10.33 33.21C10.24 28.62 10.16 24.03 10.08 19.44C10.08 19.31 10.12 19.2 10.21 19.11C10.29 19.02 10.41 18.97 10.53 18.98C26.02 19.13 39.54 19.15 51.86 19.03C51.97 19.02 52.1 19.08 52.19 19.17C52.27 19.26 52.32 19.38 52.31 19.51C51.43 34.76 51.64 50.93 52.99 71.92C53 72.05 52.95 72.17 52.86 72.26C52.78 72.36 52.65 72.41 52.53 72.4L52.34 72.4C38.89 72.17 24.99 71.94 11.39 72.46C11.38 72.46 11.37 72.46 11.37 72.46ZM10.99 19.88C11.06 24.32 11.15 28.76 11.23 33.19C11.46 45.7 11.7 58.63 11.81 71.54C25.2 71.05 38.85 71.27 52.06 71.49C50.75 50.92 50.54 34.97 51.39 19.93C39.31 20.05 26.09 20.03 10.99 19.88Z"
          fill="#000000" fill-opacity="1.000000" fill-rule="nonzero"/>
    <path id="Vector"
          d="M51.86 19.03C39.54 19.15 26.02 19.13 10.53 18.98C10.41 18.97 10.29 19.02 10.21 19.11C10.12 19.2 10.08 19.31 10.08 19.44C10.16 24.03 10.24 28.62 10.33 33.21C10.56 45.86 10.81 58.95 10.92 72.01C10.92 72.13 10.97 72.25 11.06 72.33C11.14 72.41 11.25 72.46 11.37 72.46L11.37 72.46C11.37 72.46 11.38 72.46 11.39 72.46C24.99 71.94 38.89 72.17 52.33 72.4L52.34 72.4L52.53 72.4C52.65 72.41 52.78 72.36 52.86 72.26C52.95 72.17 53 72.05 52.99 71.92C51.64 50.93 51.43 34.76 52.31 19.51C52.32 19.38 52.27 19.26 52.19 19.17C52.1 19.08 51.97 19.02 51.86 19.03ZM11.39 72.21Q20.44 71.86 31.92 71.9Q36.49 71.91 42.18 71.99Q45.6 72.03 52.34 72.15L52.34 72.15L52.53 72.15Q52.58 72.15 52.62 72.14Q52.65 72.12 52.68 72.09Q52.71 72.06 52.72 72.02Q52.74 71.99 52.74 71.94Q51.72 56.19 51.56 43.57Q51.4 30.94 52.06 19.49Q52.06 19.45 52.05 19.41Q52.03 19.37 52.01 19.34Q51.98 19.31 51.93 19.3Q51.9 19.28 51.87 19.28L51.87 19.28L51.86 19.28Q33.55 19.46 10.53 19.23Q10.5 19.23 10.47 19.24Q10.42 19.25 10.39 19.29Q10.36 19.32 10.34 19.35Q10.33 19.39 10.33 19.43L10.51 29.71L10.58 33.21L11.16 70.26L11.17 72.01Q11.17 72.05 11.19 72.09Q11.2 72.12 11.23 72.15L11.23 72.15Q11.26 72.18 11.3 72.19Q11.33 72.21 11.37 72.21L11.37 72.21Q11.38 72.21 11.39 72.21ZM10.98 33.2L10.98 33.2L11.55 70.32L11.57 71.8L11.82 71.79Q20.74 71.46 32 71.5Q36.5 71.52 42.08 71.59Q45.51 71.64 52.05 71.75L52.33 71.75L52.31 71.48Q51.33 56.05 51.17 43.63Q51 31.21 51.64 19.95L51.65 19.68L10.73 19.63L10.91 29.63L10.98 33.2ZM11.81 71.29C11.7 58.46 11.46 45.62 11.23 33.19C11.15 28.84 11.07 24.49 10.99 20.13C10.99 20.05 10.99 19.97 10.99 19.88C11.07 19.88 11.15 19.88 11.24 19.88C26.13 20.03 39.2 20.04 51.13 19.94C51.22 19.94 51.3 19.93 51.39 19.93C51.38 20.02 51.38 20.1 51.37 20.19C50.55 35.08 50.75 50.9 52.04 71.24C52.05 71.33 52.05 71.41 52.06 71.49C51.97 71.49 51.89 71.49 51.81 71.49C38.75 71.27 25.28 71.05 12.07 71.53C11.98 71.53 11.9 71.54 11.81 71.54C11.81 71.46 11.81 71.37 11.81 71.29Z"
          fill="#FFFFFF" fill-opacity="1.000000" fill-rule="evenodd"/>
    <path id="Vector"
          d="M18.66 34.53C18.66 34.53 18.65 34.53 18.65 34.53C18.48 34.53 18.33 34.43 18.26 34.28C17.75 33.24 17.13 32.25 16.41 31.34C16.26 31.14 16.29 30.86 16.49 30.71C16.68 30.55 16.97 30.59 17.12 30.78C17.7 31.52 18.22 32.3 18.67 33.12L20.69 29.35C20.81 29.14 21.08 29.05 21.3 29.17C21.52 29.29 21.6 29.56 21.48 29.78L19.06 34.3C18.98 34.44 18.82 34.53 18.66 34.53Z"
          fill="#000000" fill-opacity="1.000000" fill-rule="nonzero"/>
    <path id="Vector"
          d="M18.52 32.86C18.1 32.14 17.64 31.44 17.12 30.78C16.97 30.59 16.68 30.55 16.49 30.71C16.29 30.86 16.26 31.14 16.41 31.34C17.13 32.25 17.75 33.24 18.26 34.28C18.33 34.43 18.48 34.53 18.65 34.53L18.66 34.53C18.82 34.53 18.98 34.44 19.06 34.3L21.48 29.78C21.6 29.56 21.52 29.29 21.3 29.17C21.08 29.05 20.81 29.14 20.69 29.35L18.81 32.86L18.67 33.12C18.62 33.03 18.57 32.95 18.52 32.86ZM18.65 34.28L18.66 34.28Q18.72 34.28 18.76 34.25Q18.81 34.23 18.83 34.18L21.26 29.66Q21.28 29.63 21.28 29.59Q21.29 29.55 21.28 29.51Q21.26 29.47 21.24 29.44Q21.21 29.41 21.18 29.39Q21.14 29.37 21.11 29.37Q21.07 29.37 21.03 29.38Q20.99 29.39 20.96 29.42Q20.93 29.44 20.91 29.47L18.67 33.65L18.45 33.24Q18.11 32.64 17.73 32.06Q17.35 31.48 16.92 30.94Q16.9 30.91 16.86 30.89Q16.83 30.87 16.79 30.87Q16.75 30.86 16.71 30.87Q16.68 30.88 16.64 30.91Q16.61 30.93 16.59 30.97Q16.57 31 16.57 31.04Q16.56 31.08 16.57 31.12Q16.58 31.15 16.61 31.18Q17.27 32.02 17.81 32.93Q18.17 33.53 18.48 34.17Q18.51 34.22 18.55 34.25Q18.59 34.28 18.65 34.28Z"
          fill="#FFFFFF" fill-opacity="1.000000" fill-rule="evenodd"/>
    <path id="Vector"
          d="M18.66 46.4C18.66 46.4 18.65 46.4 18.65 46.4C18.48 46.39 18.33 46.3 18.26 46.15C17.75 45.11 17.13 44.12 16.41 43.21C16.26 43.01 16.29 42.73 16.49 42.57C16.68 42.42 16.96 42.45 17.12 42.65C17.7 43.38 18.21 44.17 18.67 44.98L20.69 41.22C20.81 41 21.08 40.92 21.3 41.04C21.52 41.15 21.6 41.43 21.48 41.65L19.06 46.16C18.98 46.31 18.82 46.4 18.66 46.4Z"
          fill="#000000" fill-opacity="1.000000" fill-rule="nonzero"/>
    <path id="Vector"
          d="M18.52 44.73C18.1 44 17.63 43.31 17.12 42.65C16.96 42.45 16.68 42.42 16.49 42.57C16.29 42.73 16.26 43.01 16.41 43.21C17.13 44.12 17.75 45.11 18.26 46.15C18.33 46.3 18.48 46.39 18.65 46.4L18.66 46.4C18.82 46.4 18.98 46.31 19.06 46.16L21.48 41.65C21.6 41.43 21.52 41.15 21.3 41.04C21.08 40.92 20.81 41 20.69 41.22L18.81 44.72L18.67 44.98C18.62 44.9 18.57 44.81 18.52 44.73ZM18.65 46.15L18.66 46.15Q18.72 46.15 18.76 46.12Q18.81 46.09 18.83 46.04L21.26 41.53Q21.28 41.49 21.28 41.45Q21.29 41.42 21.27 41.38Q21.26 41.34 21.24 41.31Q21.21 41.28 21.18 41.26Q21.14 41.24 21.11 41.24Q21.07 41.23 21.03 41.24Q20.99 41.26 20.96 41.28Q20.93 41.3 20.91 41.34L18.67 45.51L18.45 45.11Q18.01 44.31 17.49 43.58Q17.22 43.18 16.92 42.81Q16.89 42.77 16.86 42.75Q16.83 42.74 16.79 42.73Q16.75 42.73 16.71 42.74Q16.68 42.75 16.64 42.77Q16.61 42.8 16.59 42.83Q16.57 42.86 16.57 42.9Q16.56 42.95 16.57 42.98Q16.58 43.02 16.61 43.05Q17.08 43.65 17.5 44.29Q18.04 45.13 18.48 46.03Q18.51 46.09 18.55 46.12Q18.59 46.14 18.65 46.15Z"
          fill="#FFFFFF" fill-opacity="1.000000" fill-rule="evenodd"/>
    <path id="Vector"
          d="M17.77 58.26C17.77 58.26 17.77 58.26 17.76 58.26C17.59 58.26 17.44 58.16 17.37 58.01C16.86 56.97 16.24 55.98 15.52 55.07C15.37 54.87 15.41 54.59 15.6 54.44C15.8 54.28 16.08 54.32 16.23 54.51C16.81 55.25 17.33 56.03 17.78 56.85L19.8 53.08C19.92 52.86 20.19 52.78 20.41 52.9C20.63 53.02 20.71 53.29 20.6 53.51L18.17 58.02C18.09 58.17 17.94 58.26 17.77 58.26Z"
          fill="#000000" fill-opacity="1.000000" fill-rule="nonzero"/>
    <path id="Vector"
          d="M17.63 56.59C17.22 55.86 16.75 55.17 16.23 54.51C16.08 54.32 15.8 54.28 15.6 54.44C15.41 54.59 15.37 54.87 15.52 55.07C16.24 55.98 16.86 56.97 17.37 58.01C17.44 58.16 17.59 58.26 17.76 58.26L17.77 58.26C17.94 58.26 18.09 58.17 18.17 58.02L20.6 53.51C20.71 53.29 20.63 53.02 20.41 52.9C20.19 52.78 19.92 52.86 19.8 53.08L17.92 56.58L17.78 56.85C17.73 56.76 17.68 56.67 17.63 56.59ZM17.77 58.01L17.77 58.01Q17.83 58.01 17.88 57.98Q17.92 57.96 17.95 57.9L20.37 53.39Q20.39 53.35 20.4 53.32Q20.4 53.28 20.39 53.24Q20.38 53.2 20.35 53.17Q20.33 53.14 20.29 53.12Q20.26 53.1 20.22 53.1Q20.18 53.1 20.14 53.11Q20.1 53.12 20.07 53.14Q20.04 53.17 20.02 53.2L17.78 57.38L17.56 56.97Q17.23 56.38 16.86 55.81Q16.47 55.23 16.03 54.67Q16.01 54.64 15.98 54.62Q15.94 54.6 15.9 54.59Q15.86 54.59 15.82 54.6Q15.79 54.61 15.76 54.63Q15.72 54.66 15.71 54.69Q15.69 54.73 15.68 54.77Q15.68 54.81 15.69 54.84Q15.7 54.88 15.72 54.91Q16.35 55.71 16.87 56.57Q17.26 57.22 17.59 57.9Q17.62 57.95 17.67 57.98Q17.71 58.01 17.77 58.01Z"
          fill="#FFFFFF" fill-opacity="1.000000" fill-rule="evenodd"/>
    <path id="Vector"
          d="M29.32 34.73C28.15 34.73 26.98 34.72 25.82 34.71C25.57 34.71 25.37 34.51 25.37 34.26C25.37 34.01 25.57 33.81 25.82 33.81C25.82 33.81 25.82 33.81 25.82 33.81C32.81 33.88 39.89 33.75 46.87 33.44C47.11 33.42 47.32 33.62 47.34 33.87C47.35 34.12 47.15 34.33 46.91 34.34C41.08 34.6 35.18 34.73 29.32 34.73Z"
          fill="#000000" fill-opacity="1.000000" fill-rule="nonzero"/>
    <path id="Vector"
          d="M46.87 33.44C47.11 33.42 47.32 33.62 47.34 33.87C47.35 34.12 47.15 34.33 46.91 34.34C41.08 34.6 35.18 34.73 29.32 34.73Q27.57 34.73 25.82 34.71C25.57 34.71 25.37 34.51 25.37 34.26C25.37 34.01 25.57 33.81 25.82 33.81L25.82 33.81C32.81 33.88 39.89 33.75 46.87 33.44ZM25.82 34.46L25.82 34.46Q25.78 34.46 25.74 34.45Q25.71 34.43 25.68 34.4Q25.65 34.37 25.64 34.34Q25.62 34.3 25.62 34.26Q25.62 34.22 25.64 34.19Q25.65 34.15 25.68 34.12Q25.71 34.09 25.75 34.08Q25.78 34.07 25.82 34.07L25.82 34.07L25.82 34.07Q36.33 34.16 46.88 33.69L46.88 33.69L46.89 33.69Q46.91 33.69 46.93 33.69Q46.98 33.7 47.02 33.74Q47.05 33.77 47.07 33.81Q47.08 33.84 47.08 33.88Q47.09 33.92 47.07 33.96Q47.06 33.99 47.03 34.02Q47 34.05 46.97 34.07Q46.94 34.09 46.89 34.09Q38.12 34.48 29.32 34.48L25.82 34.46Z"
          fill="#FFFFFF" fill-opacity="1.000000" fill-rule="evenodd"/>
    <path id="Vector"
          d="M29.32 46.36C28.15 46.36 26.98 46.36 25.82 46.35C25.57 46.34 25.37 46.14 25.37 45.89C25.37 45.65 25.57 45.45 25.82 45.45C25.82 45.45 25.82 45.45 25.82 45.45C32.81 45.51 39.89 45.38 46.87 45.07C47.11 45.06 47.32 45.26 47.34 45.5C47.35 45.75 47.15 45.96 46.91 45.97C41.08 46.23 35.18 46.36 29.32 46.36Z"
          fill="#000000" fill-opacity="1.000000" fill-rule="nonzero"/>
    <path id="Vector"
          d="M46.87 45.07C47.11 45.06 47.32 45.26 47.34 45.5C47.35 45.75 47.15 45.96 46.91 45.97C41.08 46.23 35.18 46.36 29.32 46.36Q27.57 46.36 25.82 46.35C25.57 46.34 25.37 46.14 25.37 45.89C25.37 45.65 25.57 45.45 25.82 45.45L25.82 45.45C32.81 45.51 39.89 45.38 46.87 45.07ZM29.32 46.11L25.82 46.1Q25.78 46.09 25.74 46.08Q25.71 46.06 25.68 46.04Q25.65 46.01 25.64 45.97Q25.62 45.94 25.62 45.9Q25.62 45.86 25.64 45.82Q25.65 45.79 25.68 45.76Q25.71 45.73 25.75 45.71Q25.78 45.7 25.82 45.7L25.82 45.7Q36.33 45.79 46.88 45.33L46.88 45.33L46.89 45.33Q46.91 45.32 46.93 45.33Q46.98 45.34 47.02 45.37Q47.05 45.41 47.07 45.45Q47.08 45.48 47.08 45.52Q47.09 45.56 47.07 45.59Q47.06 45.63 47.03 45.66Q47 45.69 46.97 45.7Q46.94 45.72 46.89 45.72Q38.14 46.11 29.32 46.11Z"
          fill="#FFFFFF" fill-opacity="1.000000" fill-rule="evenodd"/>
    <path id="Vector"
          d="M29.64 58C28.47 58 27.3 58 26.13 57.99C25.88 57.98 25.68 57.78 25.68 57.53C25.68 57.28 25.89 57.09 26.13 57.09C26.13 57.09 26.14 57.09 26.14 57.09C33.12 57.15 40.2 57.02 47.18 56.71C47.19 56.71 47.19 56.71 47.2 56.71C47.44 56.71 47.64 56.9 47.65 57.14C47.66 57.39 47.47 57.6 47.22 57.61C41.39 57.87 35.49 58 29.64 58Z"
          fill="#000000" fill-opacity="1.000000" fill-rule="nonzero"/>
    <path id="Vector"
          d="M47.18 56.71C47.18 56.71 47.19 56.71 47.2 56.71L47.2 56.71C47.44 56.71 47.64 56.9 47.65 57.14C47.66 57.39 47.47 57.6 47.22 57.61C41.39 57.87 35.49 58 29.64 58C28.47 58 27.3 58 26.13 57.99C25.88 57.98 25.68 57.78 25.68 57.53C25.68 57.28 25.89 57.09 26.13 57.09L26.14 57.09C33.12 57.15 40.2 57.02 47.18 56.71ZM26.13 57.73L26.13 57.73Q26.09 57.73 26.05 57.72Q26.02 57.7 25.99 57.67Q25.96 57.65 25.95 57.61Q25.93 57.57 25.93 57.53Q25.93 57.49 25.95 57.46Q25.96 57.42 25.99 57.39Q26.02 57.37 26.06 57.35Q26.09 57.34 26.13 57.34L26.14 57.34L26.14 57.34Q36.64 57.43 47.19 56.96L47.19 56.96L47.19 56.96L47.2 56.96L47.2 56.96Q47.24 56.96 47.27 56.98Q47.31 56.99 47.33 57.02Q47.36 57.05 47.38 57.08Q47.39 57.11 47.4 57.15Q47.4 57.19 47.38 57.23Q47.37 57.27 47.34 57.3Q47.32 57.33 47.28 57.34Q47.25 57.36 47.21 57.36Q38.45 57.75 29.64 57.75L26.13 57.73Z"
          fill="#FFFFFF" fill-opacity="1.000000" fill-rule="evenodd"/>
    <g opacity="0.129400">
      <path id="Vector"
            d="M22.36 20.66C22.35 20.66 22.35 20.66 22.34 20.66C22.34 20.66 22.34 20.66 22.34 20.66C22.35 20.66 22.35 20.66 22.36 20.66Z"
            fill="#000000" fill-opacity="1.000000" fill-rule="nonzero"/>
      <path id="Vector"
            d="M22.34 20.66L22.34 20.66C22.34 20.66 22.34 20.66 22.34 20.66L22.34 20.66C22.34 20.66 22.35 20.66 22.35 20.66C22.35 20.66 22.35 20.66 22.35 20.66C22.35 20.66 22.35 20.66 22.35 20.66C22.35 20.66 22.34 20.66 22.34 20.66ZM22.36 20.66L22.35 20.66L22.35 20.66L22.35 20.66L22.36 20.66Z"
            fill="#FFFFFF" fill-opacity="1.000000" fill-rule="evenodd"/>
    </g>
  </g>
  <g clip-path="url(#clip1_109)">
    <path id="Vector"
          d="M57.27 77.11C57.26 77.11 57.26 77.11 57.25 77.11C38.85 76.52 22.32 76.43 6.7 76.84C6.58 76.85 6.46 76.8 6.38 76.72C6.29 76.64 6.24 76.52 6.24 76.4C5.95 60.23 5.97 43.95 5.99 28.2C5.99 24.07 5.99 19.92 5.99 15.77C5.99 15.65 6.04 15.54 6.12 15.45C6.21 15.37 6.32 15.32 6.44 15.32C22.51 15.32 39.12 15.31 56.72 15.93C56.97 15.94 57.16 16.15 57.15 16.4C56.53 36.39 56.72 56.66 57.72 76.64C57.72 76.77 57.68 76.89 57.59 76.98C57.5 77.07 57.39 77.11 57.27 77.11ZM26.5 75.69C36.1 75.69 46.13 75.86 56.79 76.2C55.83 56.5 55.64 36.53 56.24 16.82C38.99 16.22 22.68 16.22 6.89 16.22C6.89 20.22 6.89 24.22 6.89 28.2C6.87 43.8 6.86 59.91 7.13 75.93C13.42 75.77 19.85 75.69 26.5 75.69Z"
          fill="#000000" fill-opacity="1.000000" fill-rule="nonzero"/>
    <path id="Vector"
          d="M57.25 77.11C57.26 77.11 57.26 77.11 57.27 77.11C57.39 77.11 57.5 77.07 57.59 76.98C57.68 76.89 57.72 76.77 57.72 76.64C56.72 56.66 56.53 36.39 57.15 16.4C57.16 16.15 56.97 15.94 56.72 15.93C39.12 15.31 22.51 15.32 6.44 15.32C6.32 15.32 6.21 15.37 6.12 15.45C6.04 15.54 5.99 15.65 5.99 15.77C5.99 19.92 5.99 24.07 5.99 28.2L5.99 28.28C5.97 44 5.96 60.25 6.24 76.4C6.24 76.52 6.29 76.64 6.38 76.72C6.46 76.8 6.58 76.85 6.7 76.84C22.32 76.43 38.85 76.52 57.25 77.11ZM57.27 76.86L57.26 76.86Q43.47 76.42 30.93 76.35Q18.42 76.28 6.69 76.59L6.69 76.59L6.68 76.59Q6.67 76.59 6.66 76.59Q6.6 76.59 6.55 76.54Q6.52 76.51 6.51 76.47Q6.49 76.44 6.49 76.4Q6.3 65.65 6.25 52.18Q6.22 44.14 6.24 28.29L6.24 28.24L6.24 28.23L6.24 28.23L6.24 28.23L6.24 28.23L6.24 28.22L6.24 28.2L6.25 15.77Q6.25 15.73 6.26 15.7Q6.27 15.66 6.3 15.63Q6.33 15.6 6.36 15.59Q6.4 15.57 6.44 15.57Q14.48 15.57 18.6 15.58Q25.43 15.59 31 15.65Q44.99 15.77 56.71 16.18Q56.75 16.19 56.78 16.2Q56.82 16.22 56.85 16.25Q56.87 16.28 56.89 16.31Q56.9 16.35 56.9 16.39Q56.44 31.39 56.58 46.53Q56.72 61.66 57.46 76.65Q57.47 76.7 57.45 76.73Q57.44 76.77 57.41 76.8Q57.38 76.83 57.34 76.85Q57.31 76.86 57.27 76.86L57.27 76.86ZM57.06 76.46L57.05 76.19Q56.32 61.42 56.18 46.51Q56.04 31.6 56.49 16.82L56.5 16.57L56.25 16.56Q44.74 16.17 31.02 16.04Q25.53 15.99 18.84 15.98Q14.66 15.97 6.89 15.97L6.64 15.97L6.63 28.2L6.63 28.21Q6.62 43.93 6.65 51.91Q6.7 65.27 6.88 75.94L6.88 76.19L7.14 76.18Q16.58 75.94 26.5 75.94Q40.81 75.94 56.79 76.45L57.06 76.46ZM56.54 76.19C56.63 76.19 56.71 76.2 56.79 76.2C56.79 76.11 56.79 76.03 56.78 75.95C55.83 56.33 55.65 36.44 56.24 16.82C38.99 16.22 22.68 16.22 6.89 16.22C6.89 16.3 6.89 16.39 6.89 16.47C6.89 20.03 6.89 23.58 6.89 27.12L6.89 27.13C6.89 27.48 6.89 27.84 6.89 28.2L6.89 28.21C6.87 43.72 6.86 59.75 7.13 75.68C7.13 75.76 7.13 75.85 7.13 75.93L7.13 75.93C7.22 75.93 7.3 75.93 7.38 75.93C13.59 75.77 19.94 75.69 26.5 75.69C36.02 75.69 45.97 75.86 56.54 76.19Z"
          fill="#80ED99" fill-opacity="1.000000" fill-rule="evenodd"/>
    <path id="Vector"
          d="M11.37 72.46C11.25 72.46 11.14 72.41 11.06 72.33C10.97 72.25 10.92 72.13 10.92 72.01C10.81 58.95 10.56 45.86 10.33 33.21C10.24 28.62 10.16 24.03 10.08 19.44C10.08 19.31 10.12 19.2 10.21 19.11C10.29 19.02 10.41 18.97 10.53 18.98C26.02 19.13 39.54 19.15 51.86 19.03C51.97 19.02 52.1 19.08 52.19 19.17C52.27 19.26 52.32 19.38 52.31 19.51C51.43 34.76 51.64 50.93 52.99 71.92C53 72.05 52.95 72.17 52.86 72.26C52.78 72.36 52.65 72.41 52.53 72.4L52.34 72.4C38.89 72.17 24.99 71.94 11.39 72.46C11.38 72.46 11.37 72.46 11.37 72.46ZM10.99 19.88C11.06 24.32 11.15 28.76 11.23 33.19C11.46 45.7 11.7 58.63 11.81 71.54C25.2 71.05 38.85 71.27 52.06 71.49C50.75 50.92 50.54 34.97 51.39 19.93C39.31 20.05 26.09 20.03 10.99 19.88Z"
          fill="#000000" fill-opacity="1.000000" fill-rule="nonzero"/>
    <path id="Vector"
          d="M51.86 19.03C39.54 19.15 26.02 19.13 10.53 18.98C10.41 18.97 10.29 19.02 10.21 19.11C10.12 19.2 10.08 19.31 10.08 19.44C10.16 24.03 10.24 28.62 10.33 33.21C10.56 45.86 10.81 58.95 10.92 72.01C10.92 72.13 10.97 72.25 11.06 72.33C11.14 72.41 11.25 72.46 11.37 72.46L11.37 72.46C11.37 72.46 11.38 72.46 11.39 72.46C24.99 71.94 38.89 72.17 52.33 72.4L52.34 72.4L52.53 72.4C52.65 72.41 52.78 72.36 52.86 72.26C52.95 72.17 53 72.05 52.99 71.92C51.64 50.93 51.43 34.76 52.31 19.51C52.32 19.38 52.27 19.26 52.19 19.17C52.1 19.08 51.97 19.02 51.86 19.03ZM11.39 72.21Q20.44 71.86 31.92 71.9Q36.49 71.91 42.18 71.99Q45.6 72.03 52.34 72.15L52.34 72.15L52.53 72.15Q52.58 72.15 52.62 72.14Q52.65 72.12 52.68 72.09Q52.71 72.06 52.72 72.02Q52.74 71.99 52.74 71.94Q51.72 56.19 51.56 43.57Q51.4 30.94 52.06 19.49Q52.06 19.45 52.05 19.41Q52.03 19.37 52.01 19.34Q51.98 19.31 51.93 19.3Q51.9 19.28 51.87 19.28L51.87 19.28L51.86 19.28Q33.55 19.46 10.53 19.23Q10.5 19.23 10.47 19.24Q10.42 19.25 10.39 19.29Q10.36 19.32 10.34 19.35Q10.33 19.39 10.33 19.43L10.51 29.71L10.58 33.21L11.16 70.26L11.17 72.01Q11.17 72.05 11.19 72.09Q11.2 72.12 11.23 72.15L11.23 72.15Q11.26 72.18 11.3 72.19Q11.33 72.21 11.37 72.21L11.37 72.21Q11.38 72.21 11.39 72.21ZM10.98 33.2L10.98 33.2L11.55 70.32L11.57 71.8L11.82 71.79Q20.74 71.46 32 71.5Q36.5 71.52 42.08 71.59Q45.51 71.64 52.05 71.75L52.33 71.75L52.31 71.48Q51.33 56.05 51.17 43.63Q51 31.21 51.64 19.95L51.65 19.68L10.73 19.63L10.91 29.63L10.98 33.2ZM11.81 71.29C11.7 58.46 11.46 45.62 11.23 33.19C11.15 28.84 11.07 24.49 10.99 20.13C10.99 20.05 10.99 19.97 10.99 19.88C11.07 19.88 11.15 19.88 11.24 19.88C26.13 20.03 39.2 20.04 51.13 19.94C51.22 19.94 51.3 19.93 51.39 19.93C51.38 20.02 51.38 20.1 51.37 20.19C50.55 35.08 50.75 50.9 52.04 71.24C52.05 71.33 52.05 71.41 52.06 71.49C51.97 71.49 51.89 71.49 51.81 71.49C38.75 71.27 25.28 71.05 12.07 71.53C11.98 71.53 11.9 71.54 11.81 71.54C11.81 71.46 11.81 71.37 11.81 71.29Z"
          fill="#80ED99" fill-opacity="1.000000" fill-rule="evenodd"/>
    <path id="Vector"
          d="M18.66 34.53C18.66 34.53 18.65 34.53 18.65 34.53C18.48 34.53 18.33 34.43 18.26 34.28C17.75 33.24 17.13 32.25 16.41 31.34C16.26 31.14 16.29 30.86 16.49 30.71C16.68 30.55 16.97 30.59 17.12 30.78C17.7 31.52 18.22 32.3 18.67 33.12L20.69 29.35C20.81 29.14 21.08 29.05 21.3 29.17C21.52 29.29 21.6 29.56 21.48 29.78L19.06 34.3C18.98 34.44 18.82 34.53 18.66 34.53Z"
          fill="#000000" fill-opacity="1.000000" fill-rule="nonzero"/>
    <path id="Vector"
          d="M18.52 32.86C18.1 32.14 17.64 31.44 17.12 30.78C16.97 30.59 16.68 30.55 16.49 30.71C16.29 30.86 16.26 31.14 16.41 31.34C17.13 32.25 17.75 33.24 18.26 34.28C18.33 34.43 18.48 34.53 18.65 34.53L18.66 34.53C18.82 34.53 18.98 34.44 19.06 34.3L21.48 29.78C21.6 29.56 21.52 29.29 21.3 29.17C21.08 29.05 20.81 29.14 20.69 29.35L18.81 32.86L18.67 33.12C18.62 33.03 18.57 32.95 18.52 32.86ZM18.65 34.28L18.66 34.28Q18.72 34.28 18.76 34.25Q18.81 34.23 18.83 34.18L21.26 29.66Q21.28 29.63 21.28 29.59Q21.29 29.55 21.28 29.51Q21.26 29.47 21.24 29.44Q21.21 29.41 21.18 29.39Q21.14 29.37 21.11 29.37Q21.07 29.37 21.03 29.38Q20.99 29.39 20.96 29.42Q20.93 29.44 20.91 29.47L18.67 33.65L18.45 33.24Q18.11 32.64 17.73 32.06Q17.35 31.48 16.92 30.94Q16.9 30.91 16.86 30.89Q16.83 30.87 16.79 30.87Q16.75 30.86 16.71 30.87Q16.68 30.88 16.64 30.91Q16.61 30.93 16.59 30.97Q16.57 31 16.57 31.04Q16.56 31.08 16.57 31.12Q16.58 31.15 16.61 31.18Q17.27 32.02 17.81 32.93Q18.17 33.53 18.48 34.17Q18.51 34.22 18.55 34.25Q18.59 34.28 18.65 34.28Z"
          fill="#80ED99" fill-opacity="1.000000" fill-rule="evenodd"/>
    <path id="Vector"
          d="M29.32 34.73C28.15 34.73 26.98 34.72 25.82 34.71C25.57 34.71 25.37 34.51 25.37 34.26C25.37 34.01 25.57 33.81 25.82 33.81C25.82 33.81 25.82 33.81 25.82 33.81C32.81 33.88 39.89 33.75 46.87 33.44C47.11 33.42 47.32 33.62 47.34 33.87C47.35 34.12 47.15 34.33 46.91 34.34C41.08 34.6 35.18 34.73 29.32 34.73Z"
          fill="#000000" fill-opacity="1.000000" fill-rule="nonzero"/>
    <path id="Vector"
          d="M46.87 33.44C47.11 33.42 47.32 33.62 47.34 33.87C47.35 34.12 47.15 34.33 46.91 34.34C41.08 34.6 35.18 34.73 29.32 34.73Q27.57 34.73 25.82 34.71C25.57 34.71 25.37 34.51 25.37 34.26C25.37 34.01 25.57 33.81 25.82 33.81L25.82 33.81C32.81 33.88 39.89 33.75 46.87 33.44ZM25.82 34.46L25.82 34.46Q25.78 34.46 25.74 34.45Q25.71 34.43 25.68 34.4Q25.65 34.37 25.64 34.34Q25.62 34.3 25.62 34.26Q25.62 34.22 25.64 34.19Q25.65 34.15 25.68 34.12Q25.71 34.09 25.75 34.08Q25.78 34.07 25.82 34.07L25.82 34.07L25.82 34.07Q36.33 34.16 46.88 33.69L46.88 33.69L46.89 33.69Q46.91 33.69 46.93 33.69Q46.98 33.7 47.02 33.74Q47.05 33.77 47.07 33.81Q47.08 33.84 47.08 33.88Q47.09 33.92 47.07 33.96Q47.06 33.99 47.03 34.02Q47 34.05 46.97 34.07Q46.94 34.09 46.89 34.09Q38.12 34.48 29.32 34.48L25.82 34.46Z"
          fill="#80ED99" fill-opacity="1.000000" fill-rule="evenodd"/>
    <path id="Vector"
          d="M29.32 46.36C28.15 46.36 26.98 46.36 25.82 46.35C25.57 46.34 25.37 46.14 25.37 45.89C25.37 45.65 25.57 45.45 25.82 45.45C25.82 45.45 25.82 45.45 25.82 45.45C32.81 45.51 39.89 45.38 46.87 45.07C47.11 45.06 47.32 45.26 47.34 45.5C47.35 45.75 47.15 45.96 46.91 45.97C41.08 46.23 35.18 46.36 29.32 46.36Z"
          fill="#000000" fill-opacity="1.000000" fill-rule="nonzero"/>
    <path id="Vector"
          d="M46.87 45.07C47.11 45.06 47.32 45.26 47.34 45.5C47.35 45.75 47.15 45.96 46.91 45.97C41.08 46.23 35.18 46.36 29.32 46.36Q27.57 46.36 25.82 46.35C25.57 46.34 25.37 46.14 25.37 45.89C25.37 45.65 25.57 45.45 25.82 45.45L25.82 45.45C32.81 45.51 39.89 45.38 46.87 45.07ZM29.32 46.11L25.82 46.1Q25.78 46.09 25.74 46.08Q25.71 46.06 25.68 46.04Q25.65 46.01 25.64 45.97Q25.62 45.94 25.62 45.9Q25.62 45.86 25.64 45.82Q25.65 45.79 25.68 45.76Q25.71 45.73 25.75 45.71Q25.78 45.7 25.82 45.7L25.82 45.7Q36.33 45.79 46.88 45.33L46.88 45.33L46.89 45.33Q46.91 45.32 46.93 45.33Q46.98 45.34 47.02 45.37Q47.05 45.41 47.07 45.45Q47.08 45.48 47.08 45.52Q47.09 45.56 47.07 45.59Q47.06 45.63 47.03 45.66Q47 45.69 46.97 45.7Q46.94 45.72 46.89 45.72Q38.14 46.11 29.32 46.11Z"
          fill="#80ED99" fill-opacity="1.000000" fill-rule="evenodd"/>
    <path id="Vector"
          d="M29.64 58C28.47 58 27.3 58 26.13 57.99C25.88 57.98 25.68 57.78 25.68 57.53C25.68 57.28 25.89 57.09 26.13 57.09C26.13 57.09 26.14 57.09 26.14 57.09C33.12 57.15 40.2 57.02 47.18 56.71C47.19 56.71 47.19 56.71 47.2 56.71C47.44 56.71 47.64 56.9 47.65 57.14C47.66 57.39 47.47 57.6 47.22 57.61C41.39 57.87 35.49 58 29.64 58Z"
          fill="#000000" fill-opacity="1.000000" fill-rule="nonzero"/>
    <path id="Vector"
          d="M47.18 56.71C47.18 56.71 47.19 56.71 47.2 56.71L47.2 56.71C47.44 56.71 47.64 56.9 47.65 57.14C47.66 57.39 47.47 57.6 47.22 57.61C41.39 57.87 35.49 58 29.64 58C28.47 58 27.3 58 26.13 57.99C25.88 57.98 25.68 57.78 25.68 57.53C25.68 57.28 25.89 57.09 26.13 57.09L26.14 57.09C33.12 57.15 40.2 57.02 47.18 56.71ZM26.13 57.73L26.13 57.73Q26.09 57.73 26.05 57.72Q26.02 57.7 25.99 57.67Q25.96 57.65 25.95 57.61Q25.93 57.57 25.93 57.53Q25.93 57.49 25.95 57.46Q25.96 57.42 25.99 57.39Q26.02 57.37 26.06 57.35Q26.09 57.34 26.13 57.34L26.14 57.34L26.14 57.34Q36.64 57.43 47.19 56.96L47.19 56.96L47.19 56.96L47.2 56.96L47.2 56.96Q47.24 56.96 47.27 56.98Q47.31 56.99 47.33 57.02Q47.36 57.05 47.38 57.08Q47.39 57.11 47.4 57.15Q47.4 57.19 47.38 57.23Q47.37 57.27 47.34 57.3Q47.32 57.33 47.28 57.34Q47.25 57.36 47.21 57.36Q38.45 57.75 29.64 57.75L26.13 57.73Z"
          fill="#80ED99" fill-opacity="1.000000" fill-rule="evenodd"/>
    <g opacity="0.129400">
      <path id="Vector"
            d="M22.36 20.66C22.35 20.66 22.35 20.66 22.34 20.66C22.34 20.66 22.34 20.66 22.34 20.66C22.35 20.66 22.35 20.66 22.36 20.66Z"
            fill="#000000" fill-opacity="1.000000" fill-rule="nonzero"/>
      <path id="Vector"
            d="M22.34 20.66L22.34 20.66C22.34 20.66 22.34 20.66 22.34 20.66L22.34 20.66C22.34 20.66 22.35 20.66 22.35 20.66C22.35 20.66 22.35 20.66 22.35 20.66C22.35 20.66 22.35 20.66 22.35 20.66C22.35 20.66 22.34 20.66 22.34 20.66ZM22.36 20.66L22.35 20.66L22.35 20.66L22.35 20.66L22.36 20.66Z"
            fill="#80ED99" fill-opacity="1.000000" fill-rule="evenodd"/>
    </g>
    <circle id="Ellipse 7" cx="18.580536" cy="44.519978" r="2.310000" stroke="#000000" stroke-opacity="1.000000"
            stroke-width="0.420000"/>
    <circle id="Ellipse 8" cx="18.580536" cy="56.279743" r="2.310000" stroke="#000000" stroke-opacity="1.000000"
            stroke-width="0.420000"/>
  </g>
</svg>
