<svg width="168" height="48" viewBox="0 0 168 48" fill="none" xmlns="http://www.w3.org/2000/svg">
  <rect width="168" height="48" rx="8" fill="black"/>
  <path
    d="M50.8858 23.0867C50.8618 20.2227 53.2298 18.8307 53.3338 18.7667C51.9898 16.8147 49.9098 16.5427 49.1818 16.5187C47.4378 16.3347 45.7418 17.5667 44.8538 17.5667C43.9498 17.5667 42.5738 16.5427 41.1018 16.5667C39.2058 16.5987 37.4218 17.6947 36.4538 19.4067C34.4458 22.8867 35.9418 28.0067 37.8698 30.8227C38.8378 32.1987 39.9578 33.7427 41.4378 33.6867C42.8778 33.6307 43.4218 32.7667 45.1578 32.7667C46.8858 32.7667 47.3898 33.6867 48.8938 33.6547C50.4458 33.6307 51.4138 32.2707 52.3498 30.8787C53.4618 29.3027 53.9098 27.7427 53.9258 27.6627C53.8858 27.6467 50.9178 26.5107 50.8858 23.0867Z"
    fill="white"/>
  <path
    d="M48.0451 14.6711C48.8211 13.7031 49.3491 12.3831 49.2051 11.0391C48.0851 11.0871 46.6771 11.8151 45.8691 12.7671C45.1571 13.6071 44.5171 14.9751 44.6771 16.2631C45.9411 16.3591 47.2371 15.6231 48.0451 14.6711Z"
    fill="white"/>
  <path
    d="M71.7805 33.4801H69.7645L68.6605 30.0081H64.8205L63.7725 33.4801H61.8125L65.6125 21.6641H67.9645L71.7805 33.4801ZM68.3325 28.5521L67.3325 25.4721C67.2285 25.1521 67.0285 24.4161 66.7405 23.2481H66.7005C66.5805 23.7521 66.3965 24.4961 66.1405 25.4721L65.1565 28.5521H68.3325Z"
    fill="white"/>
  <path
    d="M81.5478 29.1251C81.5478 30.5731 81.1558 31.7171 80.3638 32.5571C79.6598 33.3091 78.7798 33.6771 77.7398 33.6771C76.6118 33.6771 75.8038 33.2771 75.3078 32.4691V36.9411H73.4118V27.7651C73.4118 26.8531 73.3878 25.9251 73.3398 24.9651H75.0038L75.1078 26.3171H75.1398C75.7718 25.3011 76.7318 24.7891 78.0118 24.7891C79.0198 24.7891 79.8518 25.1891 80.5238 25.9811C81.2118 26.7811 81.5478 27.8211 81.5478 29.1251ZM79.6198 29.1891C79.6198 28.3571 79.4358 27.6771 79.0598 27.1411C78.6518 26.5811 78.0998 26.3011 77.4118 26.3011C76.9478 26.3011 76.5238 26.4611 76.1398 26.7651C75.7638 27.0771 75.5078 27.4771 75.3958 27.9811C75.3398 28.2131 75.3078 28.4051 75.3078 28.5571V29.9811C75.3078 30.5971 75.4998 31.1251 75.8758 31.5491C76.2518 31.9731 76.7478 32.1891 77.3558 32.1891C78.0678 32.1891 78.6198 31.9091 79.0198 31.3651C79.4198 30.8131 79.6198 30.0931 79.6198 29.1891Z"
    fill="white"/>
  <path
    d="M91.3408 29.1251C91.3408 30.5731 90.9488 31.7171 90.1568 32.5571C89.4528 33.3091 88.5728 33.6771 87.5328 33.6771C86.4048 33.6771 85.5968 33.2771 85.1008 32.4691V36.9411H83.2048V27.7651C83.2048 26.8531 83.1808 25.9251 83.1328 24.9651H84.7968L84.9008 26.3171H84.9328C85.5648 25.3011 86.5248 24.7891 87.8048 24.7891C88.8128 24.7891 89.6448 25.1891 90.3168 25.9811C91.0048 26.7811 91.3408 27.8211 91.3408 29.1251ZM89.4128 29.1891C89.4128 28.3571 89.2288 27.6771 88.8528 27.1411C88.4448 26.5811 87.8928 26.3011 87.2048 26.3011C86.7408 26.3011 86.3168 26.4611 85.9328 26.7651C85.5568 27.0771 85.3088 27.4771 85.1888 27.9811C85.1328 28.2131 85.1008 28.4051 85.1008 28.5571V29.9811C85.1008 30.5971 85.2928 31.1251 85.6688 31.5491C86.0448 31.9731 86.5408 32.1891 87.1488 32.1891C87.8608 32.1891 88.4208 31.9091 88.8128 31.3651C89.2208 30.8131 89.4128 30.0931 89.4128 29.1891Z"
    fill="white"/>
  <path
    d="M102.3 30.172C102.3 31.18 101.948 31.996 101.252 32.628C100.484 33.316 99.4125 33.66 98.0365 33.66C96.7645 33.66 95.7485 33.412 94.9805 32.924L95.4205 31.348C96.2525 31.836 97.1645 32.084 98.1565 32.084C98.8685 32.084 99.4285 31.924 99.8205 31.604C100.22 31.284 100.42 30.852 100.42 30.316C100.42 29.836 100.252 29.436 99.9325 29.108C99.6045 28.78 99.0605 28.476 98.3005 28.196C96.2125 27.42 95.1805 26.292 95.1805 24.812C95.1805 23.844 95.5485 23.052 96.2765 22.428C97.0045 21.812 97.9725 21.5 99.1805 21.5C100.252 21.5 101.148 21.684 101.86 22.06L101.38 23.596C100.708 23.236 99.9565 23.052 99.1085 23.052C98.4445 23.052 97.9165 23.22 97.5405 23.54C97.2285 23.836 97.0685 24.188 97.0685 24.612C97.0685 25.076 97.2525 25.468 97.6125 25.764C97.9245 26.044 98.5005 26.348 99.3325 26.676C100.348 27.084 101.092 27.564 101.572 28.116C102.06 28.668 102.3 29.356 102.3 30.172Z"
    fill="white"/>
  <path
    d="M108.571 26.3878H106.483V30.5237C106.483 31.5717 106.851 32.0998 107.587 32.0998C107.923 32.0998 108.203 32.0677 108.427 32.0117L108.483 33.4517C108.107 33.5877 107.619 33.6597 107.011 33.6597C106.259 33.6597 105.683 33.4277 105.259 32.9717C104.835 32.5157 104.627 31.7478 104.627 30.6757V26.3797H103.387V24.9637H104.627V23.4038L106.483 22.8438V24.9637H108.571V26.3878Z"
    fill="white"/>
  <path
    d="M117.965 29.1569C117.965 30.4689 117.589 31.5409 116.845 32.3809C116.061 33.2449 115.021 33.6769 113.725 33.6769C112.477 33.6769 111.477 33.2609 110.733 32.4369C109.989 31.6129 109.621 30.5649 109.621 29.3009C109.621 27.9809 110.005 26.9009 110.765 26.0609C111.533 25.2209 112.565 24.7969 113.861 24.7969C115.109 24.7969 116.117 25.2129 116.877 26.0449C117.605 26.8449 117.965 27.8849 117.965 29.1569ZM116.005 29.1969C116.005 28.4129 115.837 27.7489 115.501 27.1889C115.101 26.5089 114.533 26.1729 113.797 26.1729C113.037 26.1729 112.453 26.5089 112.061 27.1889C111.717 27.7489 111.557 28.4289 111.557 29.2369C111.557 30.0209 111.725 30.6929 112.061 31.2449C112.469 31.9249 113.045 32.2609 113.781 32.2609C114.501 32.2609 115.069 31.9169 115.485 31.2289C115.829 30.6529 116.005 29.9809 116.005 29.1969Z"
    fill="white"/>
  <path
    d="M124.127 26.6291C123.943 26.5971 123.743 26.5811 123.527 26.5811C122.863 26.5811 122.343 26.8291 121.983 27.3331C121.671 27.7731 121.511 28.3411 121.511 29.0131V33.4851H119.615V27.6451C119.615 26.6611 119.599 25.7651 119.559 24.9651H121.207L121.279 26.5971H121.335C121.535 26.0371 121.847 25.5811 122.279 25.2451C122.703 24.9411 123.159 24.7891 123.647 24.7891C123.823 24.7891 123.983 24.8051 124.119 24.8211L124.127 26.6291Z"
    fill="white"/>
  <path
    d="M132.588 28.8216C132.588 29.1576 132.564 29.4456 132.516 29.6776H126.836C126.86 30.5176 127.132 31.1656 127.66 31.6056C128.14 31.9976 128.756 32.1976 129.516 32.1976C130.356 32.1976 131.124 32.0616 131.812 31.7976L132.108 33.1096C131.3 33.4616 130.348 33.6376 129.252 33.6376C127.932 33.6376 126.892 33.2456 126.14 32.4696C125.388 31.6936 125.012 30.6456 125.012 29.3416C125.012 28.0616 125.364 26.9896 126.068 26.1336C126.804 25.2216 127.796 24.7656 129.044 24.7656C130.268 24.7656 131.204 25.2216 131.828 26.1336C132.332 26.8696 132.588 27.7576 132.588 28.8216ZM130.78 28.3336C130.796 27.7736 130.668 27.2856 130.412 26.8776C130.084 26.3496 129.58 26.0856 128.908 26.0856C128.292 26.0856 127.788 26.3416 127.404 26.8536C127.092 27.2616 126.9 27.7576 126.844 28.3256L130.78 28.3336Z"
    fill="white"/>
  <path
    d="M67.4196 17.4486H66.4276L65.8836 15.7446H63.9956L63.4756 17.4486H62.5156L64.3796 11.6406H65.5316L67.4196 17.4486ZM65.7156 15.0246L65.2276 13.5046C65.1796 13.3526 65.0836 12.9846 64.9316 12.4086H64.9156C64.8516 12.6566 64.7716 13.0166 64.6356 13.5046L64.1556 15.0246H65.7156Z"
    fill="white"/>
  <path
    d="M72.0904 13.2578L70.5064 17.4498H69.6024L68.0664 13.2578H69.0664L69.7784 15.4738C69.8984 15.8418 70.0024 16.1938 70.0824 16.5298H70.1064C70.1784 16.2258 70.2824 15.8738 70.4104 15.4738L71.1144 13.2578H72.0904Z"
    fill="white"/>
  <path
    d="M75.4672 17.4515L75.3952 16.9715H75.3712C75.0832 17.3555 74.6752 17.5475 74.1472 17.5475C73.3952 17.5475 72.8672 17.0195 72.8672 16.3155C72.8672 15.2835 73.7632 14.7475 75.3152 14.7475V14.6675C75.3152 14.1155 75.0192 13.8435 74.4432 13.8435C74.0272 13.8435 73.6672 13.9475 73.3472 14.1555L73.1552 13.5475C73.5392 13.3075 74.0272 13.1875 74.5952 13.1875C75.6912 13.1875 76.2432 13.7635 76.2432 14.9235V16.4675C76.2432 16.8915 76.2592 17.2195 76.3072 17.4675L75.4672 17.4515ZM75.3392 15.3635C74.3072 15.3635 73.7872 15.6115 73.7872 16.2115C73.7872 16.6515 74.0512 16.8675 74.4272 16.8675C74.8992 16.8675 75.3392 16.5075 75.3392 16.0115V15.3635Z"
    fill="white"/>
  <path
    d="M78.3137 12.5651C78.0017 12.5651 77.7617 12.3251 77.7617 12.0051C77.7617 11.6851 78.0097 11.4531 78.3297 11.4531C78.6497 11.4531 78.9057 11.6851 78.8977 12.0051C78.8977 12.3411 78.6577 12.5651 78.3137 12.5651ZM77.8657 13.2531H78.7937V17.4371H77.8657V13.2531Z"
    fill="white"/>
  <path d="M80.4531 11.3359H81.3811V17.4399H80.4531V11.3359Z" fill="white"/>
  <path
    d="M85.3305 17.4517L85.2585 16.9717H85.2345C84.9465 17.3557 84.5385 17.5477 84.0105 17.5477C83.2585 17.5477 82.7305 17.0197 82.7305 16.3157C82.7305 15.2837 83.6265 14.7477 85.1785 14.7477V14.6677C85.1785 14.1157 84.8825 13.8437 84.3065 13.8437C83.8905 13.8437 83.5305 13.9477 83.2105 14.1557L83.0185 13.5397C83.4025 13.2997 83.8905 13.1797 84.4585 13.1797C85.5545 13.1797 86.1065 13.7557 86.1065 14.9157V16.4597C86.1065 16.8837 86.1225 17.2117 86.1625 17.4597H85.3305V17.4517ZM85.2025 15.3637C84.1705 15.3637 83.6505 15.6117 83.6505 16.2117C83.6505 16.6517 83.9145 16.8677 84.2905 16.8677C84.7625 16.8677 85.2025 16.5077 85.2025 16.0117V15.3637Z"
    fill="white"/>
  <path
    d="M89.8832 17.5439C89.2912 17.5439 88.8512 17.2959 88.5632 16.7999H88.5472L88.4912 17.4479H87.6992C87.7232 17.1119 87.7312 16.7359 87.7312 16.3199V11.3359H88.6672V13.8719H88.6832C88.9632 13.4079 89.4032 13.1759 90.0192 13.1759C91.0272 13.1759 91.7312 14.0399 91.7312 15.2959C91.7312 16.5919 90.9472 17.5439 89.8832 17.5439ZM89.6912 13.9039C89.1552 13.9039 88.6672 14.3679 88.6672 15.0159V15.7519C88.6672 16.3279 89.1072 16.7999 89.6752 16.7999C90.3712 16.7999 90.7872 16.2319 90.7872 15.3279C90.7872 14.4799 90.3552 13.9039 89.6912 13.9039Z"
    fill="white"/>
  <path d="M93.1094 11.3359H94.0374V17.4399H93.1094V11.3359Z" fill="white"/>
  <path
    d="M99.0982 15.5723H96.3062C96.3222 16.3643 96.8502 16.8122 97.6262 16.8122C98.0422 16.8122 98.4182 16.7403 98.7542 16.6123L98.8982 17.2603C98.5062 17.4363 98.0422 17.5163 97.4982 17.5163C96.1862 17.5163 95.4102 16.6923 95.4102 15.4043C95.4102 14.1242 96.2022 13.1562 97.3942 13.1562C98.4582 13.1562 99.1382 13.9483 99.1382 15.1483C99.1382 15.3163 99.1302 15.4603 99.0982 15.5723ZM98.2502 14.9083C98.2502 14.2603 97.9222 13.8043 97.3302 13.8043C96.7942 13.8043 96.3782 14.2683 96.3142 14.9083H98.2502Z"
    fill="white"/>
  <path
    d="M104.739 17.5477C103.515 17.5477 102.723 16.6357 102.723 15.3957C102.723 14.0997 103.531 13.1797 104.811 13.1797C106.019 13.1797 106.827 14.0517 106.827 15.3237C106.827 16.6277 105.995 17.5477 104.739 17.5477ZM104.779 13.8597C104.107 13.8597 103.675 14.4917 103.675 15.3637C103.675 16.2277 104.115 16.8517 104.771 16.8517C105.427 16.8517 105.867 16.1797 105.867 15.3397C105.859 14.4917 105.435 13.8597 104.779 13.8597Z"
    fill="white"/>
  <path
    d="M111.828 17.4519H110.9V15.0439C110.9 14.2999 110.612 13.9319 110.052 13.9319C109.5 13.9319 109.124 14.4039 109.124 14.9559V17.4439H108.196V14.4599C108.196 14.0919 108.188 13.6919 108.164 13.2599H108.98L109.02 13.9079H109.044C109.292 13.4599 109.804 13.1719 110.372 13.1719C111.252 13.1719 111.828 13.8439 111.828 14.9399V17.4519Z"
    fill="white"/>
  <path
    d="M117.915 13.9627H116.891V15.9948C116.891 16.5148 117.075 16.7707 117.435 16.7707C117.595 16.7707 117.739 16.7547 117.851 16.7307L117.875 17.4348C117.691 17.5068 117.451 17.5387 117.155 17.5387C116.419 17.5387 115.987 17.1307 115.987 16.0747V13.9627H115.379V13.2667H115.987V12.4988L116.899 12.2188V13.2588H117.923V13.9627"
    fill="white"/>
  <path
    d="M122.843 17.4479H121.915V15.0559C121.915 14.3039 121.627 13.9279 121.067 13.9279C120.587 13.9279 120.139 14.2559 120.139 14.9199V17.4399H119.211V11.3359H120.139V13.8479H120.155C120.451 13.3919 120.867 13.1679 121.411 13.1679C122.299 13.1679 122.843 13.8559 122.843 14.9519V17.4479Z"
    fill="white"/>
  <path
    d="M127.594 15.5723H124.802C124.818 16.3643 125.346 16.8122 126.122 16.8122C126.538 16.8122 126.914 16.7403 127.25 16.6123L127.394 17.2603C127.002 17.4363 126.538 17.5163 125.994 17.5163C124.682 17.5163 123.906 16.6923 123.906 15.4043C123.906 14.1242 124.698 13.1562 125.89 13.1562C126.954 13.1562 127.634 13.9483 127.634 15.1483C127.634 15.3163 127.626 15.4603 127.594 15.5723ZM126.746 14.9083C126.746 14.2603 126.418 13.8043 125.826 13.8043C125.29 13.8043 124.866 14.2683 124.81 14.9083H126.746Z"
    fill="white"/>
</svg>
