<svg width="168" height="48" viewBox="0 0 168 48" fill="none" xmlns="http://www.w3.org/2000/svg">
<rect width="168" height="48" rx="8" fill="black"/>
<path d="M39.4358 23.1973C39.4358 23.1973 31.2838 18.6773 30.8038 18.4133C30.3238 18.1493 29.8438 18.3093 29.8438 18.8613V38.3413C29.8438 38.7573 30.1878 38.9333 30.6038 38.7093C31.0198 38.4773 39.4358 33.8133 39.4358 33.8133C39.4358 33.8133 40.5798 33.1813 41.1478 32.8613C42.0678 32.3493 43.9078 31.3333 43.9078 31.3333C43.9078 31.3333 47.7078 29.2293 48.2118 28.9493C48.7157 28.6693 48.6678 28.2853 48.2438 28.0693C47.8198 27.8533 43.9158 25.6693 43.9158 25.6693L39.4358 23.1973Z" fill="url(#paint0_linear_272_137)"/>
<path d="M40.9403 28.4803L30.2203 18.3203C29.9723 18.3763 29.8203 18.5683 29.8203 18.8803V38.3203C29.8203 38.5843 29.9243 38.7443 30.0603 38.8003L40.9403 28.4803Z" fill="url(#paint1_linear_272_137)"/>
<path d="M39.4164 23.1986C39.4004 23.2386 31.2484 18.7106 30.7764 18.4786C30.2964 18.1746 29.8164 18.3426 29.8164 18.8786V38.3986C29.8164 38.8306 30.1604 39.0066 30.5364 38.7986C30.9924 38.5426 39.4004 33.8786 39.4164 33.8386L43.8964 31.3586C43.8724 31.3906 47.6644 29.2866 48.1364 29.0386C48.6804 28.7266 48.6244 28.3426 48.2164 28.1586C47.7764 27.9026 43.8724 25.7186 43.8964 25.6786L39.4164 23.1986Z" fill="url(#paint2_linear_272_137)"/>
<path d="M30.7869 18.4017C30.5789 18.2977 30.3789 18.2657 30.2109 18.3057L40.9389 28.4817L43.9069 25.6737L39.4349 23.1937C39.4349 23.1937 35.2189 20.8577 32.6749 19.4497L30.7869 18.4017Z" fill="url(#paint3_linear_272_137)"/>
<path d="M105.945 31.9086L105.057 32.7486C104.849 32.8606 104.649 32.9966 104.449 33.0846C103.833 33.3646 103.209 33.4366 102.649 33.4366C102.057 33.4366 101.129 33.3966 100.185 32.7086C98.8729 31.7806 98.2969 30.1726 98.2969 28.7806C98.2969 25.8926 100.633 24.4766 102.545 24.4766C103.209 24.4766 103.897 24.6446 104.449 24.9966C105.377 25.6126 105.617 26.4126 105.745 26.8446L101.393 28.6126L99.9689 28.7246C100.433 31.0926 102.025 32.4686 103.785 32.4686C104.665 32.4686 105.313 32.1806 105.913 31.8846C105.913 31.8846 106.033 31.8206 105.945 31.9086ZM103.289 27.1566C103.641 27.0286 103.817 26.9166 103.817 26.6526C103.817 25.9006 102.993 25.0366 102.001 25.0366C101.273 25.0366 99.8969 25.6206 99.8969 27.6446C99.8969 27.9646 99.9369 28.3006 99.9529 28.6366L103.289 27.1566Z" fill="white"/>
<path d="M96.8562 31.8061C96.8562 32.5261 96.9843 32.6381 97.5923 32.6941C97.9123 32.7341 98.2242 32.7501 98.5363 32.7821L97.8562 33.1901H94.6002C95.0242 32.6301 95.1042 32.5741 95.1042 32.2061V31.7901L95.0962 20.7501H93.6562L95.0402 20.0781H97.6802C97.1042 20.4141 96.9362 20.6141 96.8642 21.2621L96.8562 31.8061Z" fill="white"/>
<path d="M91.8097 25.3908C92.2337 25.7428 93.1137 26.4868 93.1137 27.8948C93.1137 29.2708 92.3457 29.9188 91.5697 30.5348C91.3297 30.7748 91.0497 31.0388 91.0497 31.4468C91.0497 31.8548 91.3297 32.0788 91.5297 32.2468L92.1937 32.7668C93.0017 33.4548 93.7377 34.0868 93.7377 35.3668C93.7377 37.1108 92.0577 38.8788 88.8897 38.8788C86.2177 38.8788 84.9297 37.5988 84.9297 36.2228C84.9297 35.5508 85.2577 34.6068 86.3537 33.9588C87.4977 33.2548 89.0417 33.1588 89.8737 33.1028C89.6177 32.7668 89.3217 32.4148 89.3217 31.8388C89.3217 31.5268 89.4177 31.3348 89.5057 31.1108C89.3057 31.1268 89.0977 31.1508 88.9137 31.1508C86.9617 31.1508 85.8577 29.6788 85.8577 28.2308C85.8577 27.3748 86.2417 26.4308 87.0417 25.7428C88.0897 24.8708 89.3457 24.7188 90.3377 24.7188H94.1377L92.9537 25.3908H91.8097ZM90.5137 33.6228C90.3617 33.5988 90.2737 33.5988 90.0897 33.5988C89.9217 33.5988 88.9137 33.6388 88.1377 33.9028C87.7297 34.0548 86.5377 34.5108 86.5377 35.8548C86.5377 37.1988 87.8177 38.1668 89.8097 38.1668C91.5937 38.1668 92.5377 37.2948 92.5377 36.1268C92.5377 35.1508 91.9217 34.6388 90.5137 33.6228ZM91.0337 30.0388C91.4577 29.6148 91.4977 29.0228 91.4977 28.6868C91.4977 27.3508 90.7137 25.2788 89.1857 25.2788C88.7137 25.2788 88.1937 25.5187 87.8977 25.8947C87.5857 26.2788 87.4977 26.7828 87.4977 27.2628C87.4977 28.5028 88.2177 30.5588 89.7937 30.5588C90.2497 30.5588 90.7457 30.3348 91.0337 30.0388Z" fill="white"/>
<path d="M80.3204 33.4366C77.3844 33.4366 75.8164 31.1166 75.8164 29.0206C75.8164 26.5726 77.7924 24.4766 80.6004 24.4766C83.3124 24.4766 85.0164 26.6286 85.0164 28.8926C85.0164 31.1006 83.3364 33.4366 80.3204 33.4366ZM82.6164 31.9246C83.0644 31.3246 83.1764 30.5726 83.1764 29.8446C83.1764 28.1886 82.4004 25.0366 80.0964 25.0366C79.4884 25.0366 78.8724 25.2766 78.4244 25.6766C77.7044 26.3326 77.5684 27.1566 77.5684 27.9646C77.5684 29.8206 78.4724 32.8766 80.7204 32.8766C81.4564 32.8766 82.1924 32.5246 82.6164 31.9246Z" fill="white"/>
<path d="M70.4806 33.4366C67.5446 33.4366 65.9766 31.1166 65.9766 29.0206C65.9766 26.5726 67.9526 24.4766 70.7606 24.4766C73.4726 24.4766 75.1766 26.6286 75.1766 28.8926C75.1766 31.1006 73.4966 33.4366 70.4806 33.4366ZM72.7766 31.9246C73.2246 31.3246 73.3366 30.5726 73.3366 29.8446C73.3366 28.1886 72.5526 25.0366 70.2566 25.0366C69.6406 25.0366 69.0326 25.2766 68.5846 25.6766C67.8566 26.3326 67.7286 27.1566 67.7286 27.9646C67.7286 29.8206 68.6406 32.8766 70.8806 32.8766C71.6166 32.8766 72.3526 32.5246 72.7766 31.9246Z" fill="white"/>
<path d="M64.7613 32.883L62.2733 33.459C61.2653 33.619 60.3613 33.763 59.4013 33.763C54.6013 33.755 52.7773 30.203 52.7773 27.419C52.7773 24.027 55.3693 20.875 59.8013 20.875C60.7373 20.875 61.6413 21.011 62.4653 21.243C63.7693 21.611 64.3773 22.067 64.7613 22.331L63.3133 23.715L62.7053 23.851L63.1373 23.155C62.5453 22.579 61.4653 21.507 59.4173 21.507C56.6733 21.507 54.6013 23.603 54.6013 26.667C54.6013 29.955 56.9613 33.051 60.7533 33.051C61.8653 33.051 62.4413 32.827 62.9613 32.619V29.795L60.3373 29.939L61.7293 29.187H65.4173L64.9693 29.627C64.8493 29.731 64.8333 29.763 64.7933 29.907C64.7773 30.067 64.7613 30.571 64.7613 30.755V32.883Z" fill="white"/>
<path d="M111.311 31.9886V36.7166H110.375V24.6926H111.311V26.0606C111.919 25.1726 113.039 24.4766 114.327 24.4766C116.647 24.4766 118.215 26.2446 118.215 29.0366C118.215 31.8126 116.655 33.6126 114.327 33.6126C113.111 33.6126 112.015 32.9806 111.311 31.9886ZM117.255 29.1086C117.255 26.9806 116.159 25.3566 114.207 25.3566C112.999 25.3566 111.839 26.3166 111.335 27.1566V31.0446C111.839 31.8846 112.999 32.8766 114.207 32.8766C116.159 32.8766 117.255 31.2366 117.255 29.1086Z" fill="white"/>
<path d="M119.5 21.3594H120.46V33.4394H119.5V21.3594Z" fill="white"/>
<path d="M130.897 35.8886C131.097 35.9766 131.441 36.0326 131.657 36.0326C132.233 36.0326 132.625 35.8006 132.985 34.9686L133.665 33.4166L129.977 24.6406H131.025L134.185 32.2486L137.321 24.6406H138.377L133.881 35.2566C133.417 36.3526 132.681 36.8806 131.673 36.8806C131.369 36.8806 130.969 36.8246 130.737 36.7526L130.897 35.8886Z" fill="white"/>
<path d="M128.251 33.4286C128.187 33.1246 128.139 32.8606 128.107 32.6366C128.075 32.4126 128.059 32.1886 128.059 31.9566C127.739 32.4286 127.283 32.8286 126.691 33.1406C126.107 33.4526 125.547 33.6046 124.787 33.6046C123.867 33.6046 123.155 33.3806 122.651 32.9166C122.147 32.4606 121.891 31.8366 121.891 31.0526C121.891 30.2686 122.259 29.6286 122.995 29.1406C123.731 28.6526 124.683 28.4046 125.859 28.4046H128.051V27.3166C128.051 26.6926 127.835 26.1966 127.411 25.8446C126.987 25.4846 126.387 25.3086 125.611 25.3086C124.899 25.3086 124.323 25.4766 123.883 25.7966C123.451 26.1246 123.227 26.5326 123.227 27.0206H122.267L122.251 26.9726C122.219 26.3086 122.515 25.7326 123.163 25.2286C123.803 24.7246 124.635 24.4766 125.667 24.4766C126.691 24.4766 127.523 24.7246 128.147 25.2206C128.771 25.7086 129.083 26.4206 129.083 27.3406V31.6606C129.083 31.9726 129.099 32.2686 129.139 32.5646C129.179 32.8606 129.243 33.1486 129.323 33.4286H128.251ZM124.907 32.7966C125.707 32.7966 126.283 32.6126 126.867 32.2606C127.451 31.9086 127.843 31.4446 128.051 30.8846V29.1966H125.843C125.003 29.1966 124.307 29.3806 123.755 29.7646C123.203 30.1406 122.931 30.5966 122.931 31.1326C122.931 31.6366 123.107 32.0366 123.459 32.3406C123.819 32.6446 124.299 32.7966 124.907 32.7966Z" fill="white"/>
<path d="M52.4609 13.2226C52.4609 11.5026 53.8369 10.3906 55.5489 10.3906C56.6929 10.3906 57.4449 10.9026 57.9169 11.5266L57.0769 11.9746C56.7569 11.5666 56.2049 11.2466 55.5489 11.2466C54.3889 11.2466 53.5169 12.0706 53.5169 13.2226C53.5249 14.3666 54.3889 15.1986 55.5489 15.1986C56.1489 15.1986 56.6769 14.9426 56.9409 14.7026V13.8626H55.1809V13.0146H57.9649V15.0546C57.3889 15.6546 56.5649 16.0546 55.5489 16.0546C53.8369 16.0626 52.4609 14.9426 52.4609 13.2226Z" fill="white"/>
<path d="M59.3008 15.9806V10.4766H63.3888V11.3246H60.3488V12.7406H63.3248V13.5966H60.3488V15.1326H63.3888V15.9806H59.3008Z" fill="white"/>
<path d="M66.1627 15.9806V11.3246H64.3867V10.4766H68.9707V11.3246H67.1947V15.9806H66.1627Z" fill="white"/>
<path d="M72.6445 10.4766H73.6445V15.9806H72.6445V10.4766Z" fill="white"/>
<path d="M76.5104 15.9806V11.3246H74.7344V10.4766H79.3184V11.3246H77.5424V15.9806H76.5104Z" fill="white"/>
<path d="M82.7383 13.2304C82.7383 11.5984 83.9943 10.3984 85.7863 10.3984C87.5623 10.3984 88.8263 11.5984 88.8263 13.2304C88.8263 14.8624 87.5543 16.0624 85.7863 16.0624C83.9943 16.0624 82.7383 14.8624 82.7383 13.2304ZM87.7383 13.1824C87.7383 12.0624 86.9703 11.2224 85.7783 11.2224C84.5783 11.2224 83.8183 12.0624 83.8183 13.1824C83.8183 14.2944 84.5783 15.1424 85.7783 15.1424C86.9703 15.1424 87.7383 14.3024 87.7383 13.1824Z" fill="white"/>
<path d="M94.0843 15.9806L91.0203 12.0446V15.9806H89.9883V10.4766H91.0443L94.0443 14.2926V10.4766H95.0763V15.9806H94.0843Z" fill="white"/>
<defs>
<linearGradient id="paint0_linear_272_137" x1="34.2658" y1="24.7662" x2="41.0593" y2="34.7356" gradientUnits="userSpaceOnUse">
<stop stop-color="#FF177B"/>
<stop offset="1" stop-color="#FFEC73"/>
</linearGradient>
<linearGradient id="paint1_linear_272_137" x1="37.158" y1="10.8112" x2="24.9555" y2="36.7242" gradientUnits="userSpaceOnUse">
<stop stop-color="#064AA2"/>
<stop offset="1" stop-color="#63FFD4"/>
</linearGradient>
<linearGradient id="paint2_linear_272_137" x1="40.8494" y1="22.4427" x2="25.8313" y2="31.4269" gradientUnits="userSpaceOnUse">
<stop stop-color="#FF4521"/>
<stop offset="1" stop-color="#8A33DB"/>
</linearGradient>
<linearGradient id="paint3_linear_272_137" x1="32.2395" y1="15.0451" x2="37.6162" y2="29.0209" gradientUnits="userSpaceOnUse">
<stop stop-color="#00A3B5"/>
<stop offset="1" stop-color="#D6FFA1"/>
</linearGradient>
</defs>
</svg>
